<svg class="img-fluid" id="outputsvg" xmlns="http://www.w3.org/2000/svg" style="transform: none; transform-origin: 50% 50%; cursor: move; max-height: none;" width="862" height="862" viewBox="0 0 8620 8620">
    <g id="l5SKWb6CdCOPPuMMM8cCGAk" fill="rgb(108,69,156)" style="transform: none;">
        <g>
            <path id="pebwVknMu" d="M3965 8572 c-22 -1 -98 -9 -170 -17 -764 -90 -1509 -395 -2119 -869 -543 -423 -1004 -1008 -1276 -1621 -81 -182 -76 -169 -106 -250 -198 -525 -284 -1045 -271 -1630 10 -451 68 -791 209 -1225 161 -498 417 -965 762 -1390 97 -119 344 -380 359 -380 7 0 459 447 1004 992 546 546 993 987 993 980 0 -6 9 -12 20 -12 20 0 20 7 20 924 0 507 3 951 7 986 4 41 3 61 -4 57 -5 -3 -31 -41 -57 -84 -25 -43 -80 -130 -120 -193 -41 -63 -109 -169 -151 -235 -42 -66 -144 -226 -226 -355 -83 -129 -177 -275 -208 -325 -31 -49 -146 -229 -255 -400 -109 -170 -219 -343 -245 -383 -25 -40 -55 -75 -66 -78 -11 -2 -96 -3 -190 -2 l-170 3 -3 1218 -2 1217 145 0 146 0 -3 -1044 -3 -1044 35 67 c33 61 79 134 335 526 50 77 117 181 149 230 138 215 393 610 471 730 290 448 335 519 335 527 0 4 81 8 180 8 l180 0 0 -985 c0 -961 0 -985 19 -985 12 0 127 109 297 280 204 206 284 280 301 280 l23 0 0 705 0 705 650 0 650 0 0 -25 c0 -18 5 -25 20 -25 11 0 20 4 20 8 0 4 394 402 875 883 587 586 884 876 901 879 23 5 16 14 -98 125 -325 316 -611 527 -1003 738 -453 244 -980 410 -1505 473 -112 14 -719 25 -855 16z m-2856 -3065 c73 -48 109 -147 81 -219 -16 -40 -65 -95 -104 -115 -43 -23 -114 -20 -163 5 -80 42 -122 148 -93 236 12 39 88 112 123 120 49 10 117 -1 156 -27z"></path>
            <path id="p1De7gXyT2" d="M4600 4825 c0 -398 0 -405 20 -405 13 0 20 7 20 19 0 13 132 152 355 376 305 306 355 360 355 386 l0 29 -375 0 -375 0 0 -405z"></path>
            <path id="pakQHwQFr" d="M4600 4100 c0 -23 4 -30 20 -30 11 0 20 5 20 10 0 6 14 10 30 10 23 0 30 4 30 20 0 17 -7 20 -50 20 -49 0 -50 -1 -50 -30z"></path>
            <path id="pYiurWM1P" d="M7530 3095 c0 -35 0 -35 -45 -35 -37 0 -45 -3 -45 -19 0 -13 10 -20 31 -25 58 -11 79 -8 79 14 0 11 5 20 10 20 6 0 10 18 10 40 0 33 -3 40 -20 40 -16 0 -20 -7 -20 -35z"></path>
            <path id="p16InOLtlB" d="M3357 3083 c-4 -3 -7 -22 -7 -40 l0 -34 48 3 c40 3 47 6 50 26 3 19 -1 22 -27 22 -21 0 -31 5 -31 15 0 15 -21 21 -33 8z"></path>
            <path id="puFQbSkiA" d="M3670 3075 c0 -11 -12 -15 -45 -15 -37 0 -45 -3 -45 -19 0 -19 34 -31 86 -31 21 0 24 5 24 40 0 22 -4 40 -10 40 -5 0 -10 -7 -10 -15z"></path>
            <path id="pZDq2rMsX" d="M4110 35 c0 -8 7 -15 15 -15 8 0 15 -4 15 -10 0 -6 60 -10 160 -10 100 0 160 4 160 10 0 6 7 10 15 10 8 0 15 7 15 15 0 13 -28 15 -190 15 -162 0 -190 -2 -190 -15z"></path>
        </g>
    </g>
    <g id="l4dbqGfVB94FAeg3fQEVEZG" fill="rgb(90,45,144)" style="transform: none;">
        <g>
            <path id="pyv7unLhr" d="M3883 8563 c-18 -2 -33 -8 -33 -13 0 -13 46 -24 65 -16 15 5 22 37 8 34 -5 0 -23 -3 -40 -5z"></path>
            <path id="pR7PPeg0V" d="M4675 8551 c-3 -5 -1 -13 5 -16 14 -9 70 4 70 16 0 12 -67 12 -75 0z"></path>
            <path id="ptl8M7Vyh" d="M3470 8500 c-12 -7 -12 -12 -3 -21 15 -15 26 -7 21 15 -2 11 -7 13 -18 6z"></path>
            <path id="pYZCHgYLm" d="M5115 8489 c-4 -6 -5 -13 -2 -16 7 -7 27 6 27 18 0 12 -17 12 -25 -2z"></path>
            <path id="p1HlUigZGM" d="M5306 8454 c-4 -10 2 -14 19 -14 30 0 33 16 6 23 -12 3 -22 -1 -25 -9z"></path>
            <path id="pz2a8wmxb" d="M3265 8450 c3 -5 13 -10 21 -10 8 0 14 5 14 10 0 6 -9 10 -21 10 -11 0 -17 -4 -14 -10z"></path>
            <path id="pRXdedUDl" d="M5655 8351 c-6 -11 9 -23 19 -14 9 9 7 23 -3 23 -6 0 -12 -4 -16 -9z"></path>
            <path id="pMbE4hjmz" d="M7383 7284 c21 -25 21 -32 2 -36 -8 -2 -410 -398 -894 -881 l-879 -878 -1 -122 c-1 -66 -4 -124 -7 -129 -3 -4 -68 -8 -145 -8 -114 0 -139 -3 -139 -14 0 -8 -159 -175 -354 -370 l-355 -356 -4 43 c-2 23 -3 2 -3 -48 l1 -90 438 -3 437 -2 0 -130 0 -130 -407 -1 c-225 -1 -419 -2 -433 -2 -14 -1 -28 -8 -32 -16 -4 -9 -7 -190 -7 -403 l-1 -388 473 -2 472 -3 0 -125 0 -125 -617 -3 -618 -2 -1 532 c-1 293 -1 551 -1 573 0 22 -2 30 -5 18 -2 -13 -10 -23 -16 -23 -7 0 -146 -134 -309 -298 -164 -165 -300 -297 -303 -294 -3 3 -5 -108 -5 -246 0 -137 -3 -257 -6 -265 -4 -12 -12 -13 -37 -6 -43 12 -204 11 -212 -1 -3 -5 -12 -10 -18 -10 -9 0 -12 33 -11 117 0 65 -1 108 -3 96 -3 -13 -12 -23 -21 -23 -9 0 -470 -453 -1024 -1007 -908 -907 -1009 -1005 -1025 -994 -31 23 98 -97 207 -192 644 -556 1529 -934 2360 -1007 143 -12 707 -13 855 -1 354 30 827 146 1190 294 381 155 780 390 1078 637 49 41 109 90 131 108 76 61 357 346 450 457 525 622 851 1349 971 2160 61 413 57 894 -10 1300 -133 799 -482 1541 -1005 2134 -64 74 -190 205 -157 165z m-565 -2876 l2 -1088 353 -2 352 -3 5 -115 c3 -63 1 -125 -4 -136 -7 -19 -12 -21 -40 -13 -17 5 -393 9 -843 9 l-813 0 0 130 0 130 350 0 350 0 0 1090 0 1091 143 -3 142 -3 3 -1087z"></path>
            <path id="pyOJaocY0" d="M1995 4511 c0 -528 3 -957 8 -954 9 6 9 1913 0 1913 -5 0 -8 -432 -8 -959z"></path>
            <path id="pVQvLztVc" d="M42 4658 c-1 -14 -5 -35 -8 -45 -5 -14 -4 -15 5 -7 7 7 11 26 8 45 -3 28 -4 29 -5 7z"></path>
            <path id="p1Bu85NvgV" d="M43 3925 c0 -22 2 -30 4 -17 2 12 2 30 0 40 -3 9 -5 -1 -4 -23z"></path>
        </g>
    </g>
</svg>