<svg class="img-fluid" id="outputsvg" xmlns="http://www.w3.org/2000/svg" style="transform: translate(-10%, 0%) scale(70%, 70%); cursor: move; max-height: none;" width="516" height="390" viewBox="0 0 5160 3900">
    <g id="lWyUwTnvGPpf4E6bK5tf0G" fill="rgb(224,62,174)" style="transform: none;">
        <g>
            <path id="pZl2kQcY2" d="M3451 3509 c-24 -5 -57 -17 -75 -27 -17 -11 -170 -106 -341 -212 -170 -106 -506 -314 -745 -463 -239 -148 -444 -277 -454 -286 -10 -9 -27 -34 -37 -56 -15 -35 -19 -95 -28 -465 -6 -234 -16 -599 -22 -812 -13 -496 -33 -446 222 -556 348 -151 895 -388 1109 -480 210 -91 252 -106 296 -106 61 2 64 3 323 164 900 558 1280 794 1308 816 71 54 72 60 83 486 33 1269 33 1236 10 1284 -27 54 -16 49 -640 318 -261 112 -574 247 -695 299 -121 52 -231 97 -245 99 -14 3 -45 2 -69 -3z m644 -647 c330 -142 608 -261 619 -265 17 -7 18 -20 12 -295 -14 -641 -28 -1067 -35 -1075 -7 -7 -34 -24 -346 -217 -104 -65 -358 -222 -564 -349 -287 -178 -380 -231 -397 -227 -12 3 -211 87 -441 187 -230 99 -503 217 -608 261 -104 45 -194 84 -198 88 -8 7 4 710 19 1167 l7 192 181 113 c597 370 884 549 986 614 83 53 122 72 140 69 14 -2 295 -120 625 -263z"></path>
        </g>
    </g>
    <g id="l5yf6Bjen2ZC8hKo1AUGU1L" fill="rgb(208,99,205)" style="transform: none;">
        <g>
            <path id="pvFc5S12u" d="M2115 3677 c-22 -13 -209 -128 -415 -257 -206 -128 -463 -287 -570 -353 -212 -130 -255 -164 -269 -211 -5 -17 -12 -148 -16 -291 -3 -143 -10 -427 -16 -632 -11 -397 -11 -402 37 -445 19 -16 713 -318 733 -318 8 0 11 52 11 165 0 91 1 168 2 173 3 9 5 8 -250 118 l-204 88 7 256 c4 140 10 374 14 519 l6 264 230 142 c127 78 351 216 498 308 l268 166 132 -56 c73 -30 169 -70 215 -89 46 -20 89 -34 96 -32 18 4 325 192 326 199 0 8 -25 19 -381 173 -352 151 -377 157 -454 113z"></path>
            <path id="pvqwgBVnC" d="M3320 2879 c-80 -50 -151 -94 -159 -98 -11 -7 -15 -80 -22 -362 -4 -195 -8 -388 -8 -430 l-1 -76 -424 -263 -423 -264 -5 -156 c-5 -154 0 -187 28 -176 13 5 919 566 1041 645 117 75 113 62 123 454 14 570 16 810 5 813 -5 2 -75 -38 -155 -87z"></path>
        </g>
    </g>
    <g id="l2JPvOeszS63QRMiEXEilUu" fill="rgb(178,26,170)" style="transform: none;">
        <g>
            <path id="pu4CeTkwc" d="M959 3767 c-305 -184 -834 -515 -855 -536 -13 -13 -28 -40 -33 -60 -5 -20 -12 -187 -15 -371 -3 -184 -9 -398 -12 -476 l-7 -141 29 -31 c22 -24 98 -61 309 -153 154 -66 287 -123 295 -126 14 -4 16 16 15 148 l0 152 -178 76 -178 76 6 255 c3 140 8 314 11 386 l6 130 360 225 c199 123 365 225 369 227 4 2 80 -29 170 -67 l162 -71 128 80 c70 44 134 83 143 86 27 10 18 18 -52 46 -37 15 -161 67 -276 117 -153 67 -221 91 -252 91 -33 0 -62 -12 -145 -63z"></path>
            <path id="pULQ1GYdN" d="M1945 3052 l-140 -88 -5 -145 c-3 -79 -4 -146 -3 -148 1 -1 39 21 85 51 46 29 109 69 140 87 l56 34 7 91 c4 50 5 117 3 149 l-3 58 -140 -89z"></path>
            <path id="pZ3JWToIt" d="M1468 2277 c-91 -56 -150 -100 -153 -112 -3 -11 -4 -79 -3 -151 l3 -132 157 97 157 96 3 148 c2 94 -1 147 -7 146 -5 0 -76 -42 -157 -92z"></path>
        </g>
    </g>
</svg>