<svg id="svg" version="1.1" xmlns="http://www.w3.org/2000/svg" xmlns:xlink="http://www.w3.org/1999/xlink" width="400" height="400" viewBox="0, 0, 400,400"><g id="svgg"><path id="path0" d="M237.800 81.662 C 233.164 83.201,230.341 85.936,228.483 90.688 C 227.813 92.399,226.246 96.500,224.999 99.800 C 222.510 106.388,222.299 106.937,221.692 108.400 C 221.463 108.950,220.737 110.840,220.078 112.600 C 219.418 114.360,217.973 118.140,216.865 121.000 C 215.758 123.860,212.941 131.240,210.606 137.400 C 205.231 151.580,204.012 154.782,203.562 155.900 C 203.363 156.395,203.037 157.205,202.838 157.700 C 202.639 158.195,201.902 160.130,201.200 162.000 C 200.498 163.870,199.778 165.760,199.599 166.200 C 199.421 166.640,198.552 168.890,197.669 171.200 C 194.796 178.711,189.983 191.323,188.739 194.600 C 188.071 196.360,187.378 198.160,187.199 198.600 C 186.877 199.396,184.899 204.568,182.000 212.200 C 181.164 214.400,179.753 218.090,178.864 220.400 C 177.974 222.710,176.055 227.750,174.597 231.600 C 173.140 235.450,171.797 238.960,171.612 239.400 C 171.427 239.840,170.702 241.730,170.000 243.600 C 169.298 245.470,168.578 247.360,168.399 247.800 C 168.221 248.240,167.353 250.490,166.471 252.800 C 165.589 255.110,163.967 259.340,162.868 262.200 C 161.768 265.060,159.849 270.100,158.603 273.400 C 156.072 280.106,153.293 287.384,152.801 288.600 C 152.622 289.040,151.902 290.930,151.200 292.800 C 149.877 296.324,149.467 297.374,148.816 298.900 C 145.086 307.650,147.225 314.556,154.690 317.857 C 161.821 321.010,168.562 317.358,172.032 308.461 C 174.900 301.106,177.214 295.116,178.467 291.800 C 179.132 290.040,179.822 288.240,180.001 287.800 C 180.179 287.360,181.079 285.020,182.000 282.600 C 182.921 280.180,183.821 277.840,184.000 277.400 C 184.468 276.247,187.226 269.010,189.412 263.200 C 190.446 260.450,192.367 255.410,193.680 252.000 C 194.993 248.590,196.610 244.360,197.272 242.600 C 198.859 238.383,199.017 237.976,199.524 236.800 C 199.762 236.250,200.615 234.000,201.420 231.800 C 202.226 229.600,203.485 226.270,204.218 224.400 C 204.951 222.530,206.746 217.850,208.205 214.000 C 209.665 210.150,211.764 204.660,212.869 201.800 C 213.974 198.940,215.418 195.160,216.078 193.400 C 216.737 191.640,217.463 189.750,217.692 189.200 C 218.263 187.825,217.860 188.877,224.197 172.200 C 228.649 160.485,229.640 157.890,230.000 157.000 C 230.178 156.560,230.869 154.760,231.534 153.000 C 232.200 151.240,233.820 147.010,235.133 143.600 C 236.446 140.190,238.369 135.150,239.406 132.400 C 240.444 129.650,242.367 124.610,243.680 121.200 C 244.993 117.790,246.610 113.560,247.272 111.800 C 247.934 110.040,248.663 108.150,248.892 107.600 C 249.427 106.311,249.663 105.698,251.196 101.600 C 251.896 99.730,252.633 97.787,252.834 97.281 C 256.017 89.285,246.043 78.924,237.800 81.662 M131.200 138.075 C 128.846 139.066,127.964 139.550,123.404 142.354 C 120.762 143.979,117.705 145.843,116.610 146.497 C 115.516 147.150,113.863 148.206,112.938 148.843 C 112.013 149.479,111.141 150.000,111.000 150.000 C 110.859 150.000,109.992 150.517,109.072 151.148 C 108.152 151.780,105.591 153.376,103.380 154.695 C 101.169 156.014,96.669 158.763,93.380 160.803 C 90.091 162.843,86.320 165.180,85.000 165.996 C 83.680 166.813,81.321 168.273,79.758 169.240 C 78.195 170.208,73.785 172.890,69.958 175.200 C 60.335 181.009,56.366 185.209,54.452 191.611 C 54.157 192.595,53.755 193.813,53.558 194.319 C 52.823 196.205,53.134 204.754,54.033 207.373 C 56.349 214.119,59.502 218.369,64.481 221.459 C 66.307 222.592,70.562 225.247,73.937 227.359 C 77.313 229.472,80.150 231.200,80.242 231.200 C 80.334 231.200,81.622 231.983,83.105 232.940 C 84.587 233.897,86.970 235.403,88.400 236.287 C 92.015 238.522,105.985 247.125,112.000 250.821 C 114.750 252.511,119.250 255.295,122.000 257.009 C 129.738 261.829,131.071 262.400,134.595 262.400 C 141.980 262.400,146.992 257.453,146.956 250.200 C 146.919 243.032,146.468 242.574,128.700 231.665 C 124.822 229.284,120.740 226.759,119.200 225.789 C 115.144 223.232,108.174 218.980,107.814 218.841 C 107.586 218.753,106.680 218.194,105.800 217.598 C 104.920 217.003,103.030 215.802,101.600 214.930 C 100.170 214.059,96.120 211.577,92.600 209.414 C 89.080 207.252,85.660 205.171,85.000 204.789 C 79.510 201.613,77.910 200.469,78.231 199.950 C 78.456 199.587,81.501 197.568,84.800 195.595 C 85.790 195.003,90.020 192.397,94.200 189.803 C 98.380 187.209,102.610 184.597,103.600 184.000 C 104.590 183.402,106.930 181.962,108.800 180.800 C 116.478 176.030,132.470 166.211,138.178 162.762 C 146.375 157.809,149.217 151.270,146.031 144.696 C 143.545 139.567,135.834 136.125,131.200 138.075 M262.000 138.075 C 259.395 139.172,258.893 139.451,257.374 140.650 C 252.215 144.720,251.588 153.113,256.061 158.208 C 257.284 159.601,260.053 161.566,264.800 164.409 C 265.790 165.002,268.040 166.379,269.800 167.470 C 271.560 168.560,276.600 171.667,281.000 174.374 C 285.400 177.080,290.350 180.150,292.000 181.195 C 293.650 182.241,299.050 185.579,304.000 188.615 C 320.395 198.668,322.000 199.698,322.000 200.165 C 322.000 200.552,317.409 203.611,313.245 206.000 C 311.650 206.915,295.799 216.646,292.400 218.797 C 290.750 219.842,285.350 223.172,280.400 226.197 C 275.450 229.223,270.410 232.340,269.200 233.123 C 267.990 233.906,266.640 234.741,266.200 234.979 C 260.226 238.213,255.545 241.895,254.446 244.226 C 254.142 244.872,253.706 245.807,253.477 246.304 C 251.265 251.109,254.845 258.867,260.496 261.512 C 265.826 264.008,269.701 262.636,284.727 252.930 C 285.897 252.174,287.427 251.230,288.127 250.831 C 288.827 250.433,290.930 249.160,292.800 248.004 C 294.670 246.847,297.280 245.235,298.600 244.423 C 310.374 237.175,313.855 235.030,316.800 233.206 C 322.608 229.609,324.785 228.268,331.703 224.029 C 343.170 217.002,346.961 211.023,346.941 200.000 C 346.921 189.380,343.261 183.401,332.831 176.955 C 329.404 174.837,325.475 172.406,324.100 171.552 C 318.834 168.283,316.433 166.800,311.400 163.711 C 297.935 155.446,292.030 151.797,290.073 150.532 C 288.903 149.775,287.373 148.830,286.673 148.432 C 285.973 148.033,282.263 145.766,278.428 143.393 C 269.280 137.732,265.626 136.549,262.000 138.075 " stroke="none" fill="#fbfbfb" fill-rule="evenodd"></path><path id="path1" d="M181.200 0.450 C 179.110 0.619,175.960 0.875,174.200 1.020 C 172.440 1.164,170.815 1.433,170.588 1.617 C 170.362 1.801,169.057 1.992,167.688 2.041 C 166.320 2.091,165.200 2.282,165.200 2.466 C 165.200 2.650,164.390 2.800,163.400 2.800 C 162.410 2.800,161.600 2.980,161.600 3.200 C 161.600 3.420,160.801 3.600,159.824 3.600 C 158.847 3.600,157.936 3.780,157.800 4.000 C 157.664 4.220,156.858 4.400,156.010 4.400 C 155.161 4.400,154.407 4.571,154.333 4.780 C 154.260 4.989,153.435 5.204,152.500 5.258 C 151.565 5.312,150.800 5.501,150.800 5.678 C 150.800 5.855,150.170 6.000,149.400 6.000 C 148.630 6.000,148.000 6.180,148.000 6.400 C 148.000 6.620,147.370 6.800,146.600 6.800 C 145.830 6.800,145.200 6.980,145.200 7.200 C 145.200 7.420,144.660 7.600,144.000 7.600 C 143.340 7.600,142.800 7.780,142.800 8.000 C 142.800 8.220,142.170 8.400,141.400 8.400 C 140.630 8.400,140.000 8.543,140.000 8.719 C 140.000 8.894,139.505 9.024,138.900 9.009 C 138.295 8.993,137.170 9.288,136.400 9.665 C 134.522 10.583,130.400 12.040,130.400 11.785 C 130.400 11.673,129.983 11.855,129.473 12.189 C 128.962 12.523,128.075 12.836,127.501 12.883 C 126.927 12.931,126.545 13.112,126.652 13.285 C 126.760 13.458,126.487 13.600,126.047 13.600 C 125.607 13.600,125.136 13.780,125.000 14.000 C 124.864 14.220,124.303 14.400,123.753 14.400 C 123.188 14.400,122.860 14.574,123.000 14.800 C 123.140 15.026,122.812 15.200,122.247 15.200 C 121.697 15.200,121.136 15.380,121.000 15.600 C 120.864 15.820,120.403 16.000,119.976 16.000 C 119.549 16.000,119.200 16.180,119.200 16.400 C 119.200 16.620,118.840 16.800,118.400 16.800 C 117.960 16.800,117.600 16.980,117.600 17.200 C 117.600 17.420,117.240 17.600,116.800 17.600 C 116.360 17.600,116.000 17.780,116.000 18.000 C 116.000 18.220,115.651 18.400,115.224 18.400 C 114.797 18.400,114.336 18.580,114.200 18.800 C 114.064 19.020,113.603 19.200,113.176 19.200 C 112.749 19.200,112.400 19.380,112.400 19.600 C 112.400 19.820,112.040 20.000,111.600 20.000 C 111.160 20.000,110.800 20.180,110.800 20.400 C 110.800 20.620,110.440 20.800,110.000 20.800 C 109.560 20.800,109.199 20.935,109.197 21.100 C 109.193 21.459,107.256 22.400,106.520 22.400 C 106.234 22.400,106.000 22.580,106.000 22.800 C 106.000 23.020,105.828 23.200,105.618 23.200 C 105.407 23.200,104.315 23.743,103.191 24.406 C 102.066 25.069,101.262 25.384,101.403 25.106 C 101.545 24.828,101.323 24.960,100.910 25.400 C 99.987 26.383,97.442 27.790,97.850 27.092 C 98.009 26.821,97.625 27.102,96.999 27.716 C 96.372 28.329,95.612 28.737,95.309 28.620 C 95.006 28.504,94.868 28.587,95.003 28.805 C 95.137 29.022,94.967 29.200,94.624 29.200 C 94.281 29.200,94.000 29.380,94.000 29.600 C 94.000 29.820,93.730 30.000,93.400 30.000 C 93.070 30.000,92.800 30.180,92.800 30.400 C 92.800 30.620,92.575 30.807,92.300 30.816 C 92.025 30.825,91.177 31.365,90.415 32.016 C 89.653 32.667,88.798 33.200,88.515 33.200 C 88.232 33.200,88.000 33.380,88.000 33.600 C 88.000 33.820,87.730 34.000,87.400 34.000 C 87.070 34.000,86.800 34.180,86.800 34.400 C 86.800 34.620,86.570 34.800,86.288 34.800 C 86.007 34.800,85.524 35.150,85.215 35.579 C 84.907 36.007,84.530 36.280,84.378 36.187 C 84.226 36.093,83.568 36.507,82.915 37.108 C 81.078 38.797,80.023 39.600,79.643 39.600 C 79.451 39.600,78.423 40.400,77.358 41.378 C 76.293 42.355,75.351 43.084,75.263 42.997 C 75.176 42.909,74.877 43.055,74.598 43.319 C 74.319 43.584,73.148 44.610,71.996 45.600 C 70.844 46.590,69.032 48.181,67.971 49.136 C 66.909 50.091,65.847 50.752,65.610 50.606 C 65.374 50.460,65.230 50.509,65.290 50.715 C 65.425 51.175,51.220 65.438,50.759 65.305 C 50.577 65.252,50.523 65.456,50.639 65.757 C 50.754 66.058,50.428 66.640,49.914 67.052 C 49.401 67.463,48.151 68.880,47.137 70.200 C 46.123 71.520,44.778 73.153,44.147 73.828 C 43.516 74.503,42.946 75.294,42.881 75.585 C 42.815 75.877,42.317 76.465,41.773 76.893 C 41.229 77.321,40.491 78.240,40.133 78.935 C 39.775 79.631,39.148 80.491,38.741 80.847 C 38.333 81.203,38.000 81.696,38.000 81.944 C 38.000 82.191,37.640 82.618,37.200 82.893 C 36.760 83.168,36.400 83.669,36.400 84.008 C 36.400 84.346,36.040 84.883,35.600 85.200 C 35.160 85.517,34.800 86.007,34.800 86.288 C 34.800 86.570,34.620 86.800,34.400 86.800 C 34.180 86.800,34.000 86.971,34.000 87.180 C 34.000 87.389,33.460 88.360,32.800 89.338 C 32.140 90.316,31.600 91.275,31.600 91.470 C 31.600 91.664,31.240 92.083,30.800 92.400 C 30.360 92.717,30.000 93.220,30.000 93.517 C 30.000 94.194,28.981 95.247,28.648 94.914 C 28.511 94.778,28.400 95.002,28.400 95.412 C 28.400 96.090,27.726 97.278,25.483 100.557 C 25.048 101.194,24.879 101.598,25.108 101.457 C 25.370 101.295,25.353 101.571,25.063 102.196 C 24.808 102.745,24.465 103.195,24.300 103.197 C 24.135 103.199,24.000 103.470,24.000 103.800 C 24.000 104.130,23.820 104.400,23.600 104.400 C 23.380 104.400,23.200 104.634,23.200 104.920 C 23.200 105.656,22.259 107.593,21.900 107.597 C 21.735 107.599,21.600 107.960,21.600 108.400 C 21.600 108.840,21.420 109.200,21.200 109.200 C 20.980 109.200,20.800 109.560,20.800 110.000 C 20.800 110.440,20.620 110.800,20.400 110.800 C 20.180 110.800,20.000 111.160,20.000 111.600 C 20.000 112.040,19.820 112.400,19.600 112.400 C 19.380 112.400,19.200 112.760,19.200 113.200 C 19.200 113.640,19.020 114.000,18.800 114.000 C 18.580 114.000,18.400 114.272,18.400 114.605 C 18.400 114.938,18.240 115.523,18.044 115.905 C 17.848 116.287,17.265 117.500,16.749 118.600 C 16.233 119.700,15.628 120.732,15.405 120.894 C 15.182 121.056,15.141 121.191,15.313 121.194 C 15.485 121.197,15.166 122.023,14.605 123.029 C 14.043 124.034,13.803 124.722,14.071 124.556 C 14.338 124.391,14.162 124.811,13.679 125.490 C 13.195 126.168,12.800 127.056,12.800 127.462 C 12.799 128.274,11.538 131.795,11.085 132.248 C 10.928 132.405,10.800 133.043,10.800 133.667 C 10.800 134.290,10.609 134.800,10.376 134.800 C 10.143 134.800,10.064 134.980,10.200 135.200 C 10.336 135.420,10.257 135.600,10.024 135.600 C 9.791 135.600,9.600 135.949,9.600 136.376 C 9.600 136.803,9.437 137.254,9.238 137.377 C 9.038 137.500,8.964 137.940,9.072 138.355 C 9.181 138.770,9.074 139.231,8.835 139.378 C 8.596 139.526,8.400 140.277,8.400 141.047 C 8.400 141.879,8.238 142.347,8.000 142.200 C 7.758 142.051,7.600 142.596,7.600 143.576 C 7.600 144.469,7.420 145.200,7.200 145.200 C 6.980 145.200,6.800 145.751,6.800 146.424 C 6.800 147.157,6.636 147.546,6.390 147.394 C 6.165 147.255,6.006 147.289,6.037 147.470 C 6.214 148.487,5.952 150.817,5.680 150.649 C 5.504 150.541,5.317 151.096,5.264 151.883 C 5.211 152.670,4.995 153.636,4.784 154.031 C 4.573 154.425,4.400 155.389,4.400 156.174 C 4.400 156.958,4.220 157.600,4.000 157.600 C 3.780 157.600,3.600 158.500,3.600 159.600 C 3.600 160.700,3.420 161.600,3.200 161.600 C 2.980 161.600,2.800 162.464,2.800 163.520 C 2.800 164.576,2.637 165.611,2.437 165.820 C 2.064 166.210,1.737 168.487,1.348 173.399 C 1.226 174.939,0.936 176.316,0.704 176.459 C 0.053 176.862,-0.194 212.021,0.406 218.800 C 0.669 221.770,0.970 225.415,1.075 226.900 C 1.180 228.385,1.415 229.600,1.597 229.600 C 1.780 229.600,2.008 230.635,2.105 231.900 C 2.203 233.165,2.391 234.619,2.524 235.132 C 2.657 235.645,2.807 236.850,2.857 237.810 C 2.907 238.771,3.094 239.465,3.274 239.355 C 3.548 239.185,3.821 241.871,3.637 242.930 C 3.606 243.111,3.765 243.145,3.990 243.006 C 4.244 242.849,4.400 243.370,4.400 244.376 C 4.400 245.269,4.580 246.000,4.800 246.000 C 5.020 246.000,5.200 246.709,5.200 247.576 C 5.200 248.443,5.380 249.264,5.600 249.400 C 5.820 249.536,6.000 250.267,6.000 251.024 C 6.000 251.781,6.180 252.400,6.400 252.400 C 6.620 252.400,6.800 253.030,6.800 253.800 C 6.800 254.570,6.980 255.200,7.200 255.200 C 7.420 255.200,7.579 255.335,7.553 255.500 C 7.372 256.642,7.665 258.407,8.000 258.200 C 8.226 258.060,8.400 258.388,8.400 258.953 C 8.400 259.503,8.580 260.064,8.800 260.200 C 9.020 260.336,9.200 260.977,9.200 261.624 C 9.200 262.271,9.380 262.800,9.600 262.800 C 9.820 262.800,10.000 263.310,10.000 263.933 C 10.000 264.557,10.125 265.191,10.277 265.344 C 10.429 265.496,10.613 266.007,10.685 266.479 C 10.757 266.951,11.007 267.568,11.241 267.849 C 11.475 268.131,11.549 268.730,11.406 269.181 C 11.262 269.634,11.325 270.000,11.546 270.000 C 11.884 270.000,12.354 270.910,12.630 272.100 C 12.669 272.265,12.744 272.535,12.797 272.700 C 12.851 272.865,12.873 273.135,12.847 273.300 C 12.821 273.465,12.980 273.600,13.200 273.600 C 13.420 273.600,13.600 273.960,13.600 274.400 C 13.600 274.840,13.825 275.203,14.100 275.206 C 14.433 275.210,14.400 275.342,14.000 275.600 C 13.600 275.858,13.567 275.990,13.900 275.994 C 14.175 275.997,14.400 276.270,14.400 276.600 C 14.400 276.930,14.580 277.200,14.800 277.200 C 15.020 277.200,15.200 277.639,15.200 278.176 C 15.200 278.713,15.380 279.264,15.600 279.400 C 15.820 279.536,16.000 279.997,16.000 280.424 C 16.000 280.851,16.136 281.200,16.302 281.200 C 16.469 281.200,16.840 281.785,17.129 282.500 C 17.417 283.215,17.821 284.113,18.026 284.495 C 18.232 284.877,18.400 285.462,18.400 285.795 C 18.400 286.128,18.546 286.400,18.725 286.400 C 18.904 286.400,19.298 287.030,19.600 287.800 C 19.902 288.570,20.296 289.200,20.475 289.200 C 20.654 289.200,20.800 289.560,20.800 290.000 C 20.800 290.440,20.980 290.800,21.200 290.800 C 21.420 290.800,21.600 291.160,21.600 291.600 C 21.600 292.040,21.780 292.400,22.000 292.400 C 22.220 292.400,22.400 292.760,22.400 293.200 C 22.400 293.640,22.580 294.000,22.800 294.000 C 23.020 294.000,23.200 294.360,23.200 294.800 C 23.200 295.240,23.380 295.600,23.600 295.600 C 23.820 295.600,24.000 295.960,24.000 296.400 C 24.000 296.840,24.180 297.200,24.400 297.200 C 24.620 297.200,24.800 297.436,24.800 297.725 C 24.800 298.013,25.176 298.652,25.635 299.145 C 26.094 299.638,26.370 300.302,26.247 300.621 C 26.113 300.971,26.267 301.200,26.636 301.200 C 26.972 301.200,27.149 301.359,27.029 301.553 C 26.909 301.747,27.168 302.361,27.605 302.916 C 28.042 303.472,28.400 304.123,28.400 304.363 C 28.400 304.603,28.558 304.800,28.751 304.800 C 28.945 304.800,29.327 305.340,29.600 306.000 C 29.873 306.660,30.255 307.200,30.449 307.200 C 30.642 307.200,30.800 307.436,30.800 307.725 C 30.800 308.013,31.115 308.598,31.500 309.025 C 31.885 309.451,32.455 310.295,32.768 310.900 C 33.080 311.505,33.485 312.000,33.668 312.000 C 33.850 312.000,34.000 312.236,34.000 312.525 C 34.000 312.813,34.360 313.436,34.800 313.908 C 35.240 314.380,35.600 314.863,35.600 314.980 C 35.600 315.258,38.151 318.686,39.415 320.107 C 39.957 320.716,40.400 321.491,40.400 321.831 C 40.400 322.170,40.580 322.336,40.800 322.200 C 41.020 322.064,41.200 322.263,41.200 322.643 C 41.200 323.023,41.319 323.214,41.464 323.069 C 41.837 322.696,42.899 324.316,42.600 324.801 C 42.464 325.020,42.633 325.200,42.976 325.200 C 43.319 325.200,43.600 325.341,43.600 325.514 C 43.600 325.880,44.771 327.321,48.500 331.542 C 49.985 333.222,51.200 334.823,51.200 335.099 C 51.200 335.374,51.335 335.603,51.500 335.606 C 52.050 335.618,54.400 337.898,54.400 338.419 C 54.400 338.702,54.511 338.822,54.648 338.686 C 54.951 338.382,56.000 339.379,56.000 339.971 C 56.000 340.207,56.149 340.400,56.331 340.400 C 56.513 340.400,58.568 342.245,60.896 344.500 C 63.225 346.755,66.429 349.770,68.017 351.200 C 69.605 352.630,71.389 354.250,71.983 354.800 C 72.576 355.350,73.181 355.850,73.327 355.911 C 73.472 355.972,73.863 356.126,74.196 356.254 C 74.528 356.381,74.805 356.691,74.810 356.943 C 74.816 357.194,75.527 357.726,76.391 358.124 C 77.254 358.522,78.072 359.197,78.208 359.624 C 78.343 360.051,78.722 360.400,79.051 360.400 C 79.400 360.400,79.529 360.592,79.362 360.862 C 79.193 361.136,79.251 361.215,79.506 361.058 C 79.742 360.912,80.201 361.058,80.525 361.382 C 80.849 361.706,81.359 362.023,81.657 362.086 C 81.956 362.149,82.697 362.695,83.303 363.300 C 83.910 363.905,84.675 364.400,85.003 364.400 C 85.332 364.400,85.600 364.538,85.600 364.706 C 85.600 364.874,86.320 365.456,87.200 366.000 C 88.080 366.544,88.800 367.126,88.800 367.294 C 88.800 367.462,89.120 367.600,89.512 367.600 C 89.903 367.600,90.483 367.960,90.800 368.400 C 91.117 368.840,91.657 369.200,92.000 369.200 C 92.343 369.200,92.883 369.560,93.200 370.000 C 93.517 370.440,94.127 370.800,94.555 370.800 C 94.983 370.800,95.203 370.931,95.043 371.090 C 94.884 371.250,95.349 371.588,96.077 371.842 C 96.804 372.096,97.357 372.499,97.305 372.738 C 97.252 372.976,97.476 373.069,97.801 372.944 C 98.131 372.818,98.498 372.990,98.630 373.333 C 98.760 373.672,99.121 373.852,99.433 373.732 C 99.745 373.612,100.000 373.714,100.000 373.957 C 100.000 374.201,100.270 374.400,100.600 374.400 C 100.930 374.400,101.200 374.580,101.200 374.800 C 101.200 375.020,101.560 375.200,102.000 375.200 C 102.440 375.200,102.800 375.380,102.800 375.600 C 102.800 375.820,103.160 376.000,103.600 376.000 C 104.040 376.000,104.400 376.180,104.400 376.400 C 104.400 376.620,104.760 376.800,105.200 376.800 C 105.640 376.800,106.000 376.980,106.000 377.200 C 106.000 377.420,106.283 377.600,106.629 377.600 C 106.974 377.600,107.529 377.872,107.861 378.204 C 108.193 378.536,108.611 378.717,108.790 378.606 C 108.970 378.495,109.218 378.671,109.343 378.996 C 109.472 379.331,109.835 379.485,110.185 379.350 C 110.523 379.221,110.800 379.280,110.800 379.483 C 110.800 379.685,111.430 380.098,112.200 380.400 C 112.970 380.702,113.600 381.096,113.600 381.275 C 113.600 381.454,114.050 381.600,114.600 381.600 C 115.150 381.600,115.600 381.780,115.600 382.000 C 115.600 382.220,115.870 382.400,116.200 382.400 C 116.530 382.400,116.800 382.580,116.800 382.800 C 116.800 383.020,117.143 383.200,117.562 383.200 C 117.981 383.200,119.016 383.546,119.862 383.970 C 120.708 384.393,121.985 384.977,122.700 385.267 C 123.415 385.558,124.000 385.931,124.000 386.098 C 124.000 386.264,124.452 386.400,125.005 386.400 C 125.558 386.400,126.323 386.565,126.705 386.766 C 127.411 387.139,128.960 387.813,131.749 388.962 C 132.601 389.313,133.636 389.600,134.049 389.600 C 134.462 389.600,134.800 389.780,134.800 390.000 C 134.800 390.220,134.935 390.379,135.100 390.353 C 136.200 390.179,137.213 390.456,136.962 390.862 C 136.787 391.145,136.852 391.215,137.130 391.043 C 137.591 390.759,140.428 391.377,141.695 392.037 C 142.077 392.237,142.741 392.400,143.171 392.400 C 143.601 392.400,144.064 392.580,144.200 392.800 C 144.336 393.020,144.872 393.200,145.390 393.200 C 145.909 393.200,146.424 393.425,146.535 393.700 C 146.696 394.098,146.743 394.097,146.768 393.697 C 146.790 393.351,147.019 393.304,147.500 393.548 C 148.832 394.221,151.062 394.800,152.328 394.800 C 153.028 394.800,153.600 394.980,153.600 395.200 C 153.600 395.420,154.309 395.600,155.176 395.600 C 156.043 395.600,156.864 395.780,157.000 396.000 C 157.136 396.220,157.856 396.400,158.600 396.400 C 159.344 396.400,160.064 396.580,160.200 396.800 C 160.336 397.020,161.416 397.200,162.600 397.200 C 163.784 397.200,164.864 397.380,165.000 397.600 C 165.136 397.820,166.036 398.000,167.000 398.000 C 167.964 398.000,168.864 398.180,169.000 398.400 C 169.136 398.620,170.597 398.800,172.247 398.800 C 173.897 398.800,175.153 398.952,175.038 399.138 C 174.515 399.985,212.286 400.323,220.600 399.546 C 222.800 399.341,225.860 399.075,227.400 398.955 C 228.940 398.835,230.371 398.572,230.580 398.369 C 230.789 398.166,232.004 398.000,233.280 398.000 C 234.560 398.000,235.600 397.821,235.600 397.600 C 235.600 397.380,236.489 397.200,237.576 397.200 C 238.663 397.200,239.664 397.020,239.800 396.800 C 239.936 396.580,240.757 396.400,241.624 396.400 C 242.491 396.400,243.200 396.220,243.200 396.000 C 243.200 395.780,243.999 395.600,244.976 395.600 C 245.953 395.600,246.864 395.420,247.000 395.200 C 247.136 394.980,247.852 394.800,248.590 394.800 C 249.329 394.800,249.993 394.629,250.067 394.420 C 250.140 394.211,250.954 393.997,251.876 393.943 C 252.798 393.890,253.475 393.721,253.380 393.568 C 253.207 393.288,254.521 392.942,257.298 392.536 C 258.122 392.415,258.696 392.155,258.574 391.958 C 258.452 391.761,258.993 391.600,259.776 391.600 C 260.559 391.600,261.200 391.408,261.200 391.173 C 261.200 390.938,261.535 390.852,261.944 390.982 C 262.363 391.115,262.896 390.966,263.167 390.640 C 263.448 390.302,264.066 390.137,264.655 390.244 C 265.286 390.359,265.568 390.272,265.408 390.014 C 265.191 389.662,266.599 389.379,267.700 389.553 C 267.865 389.579,268.000 389.420,268.000 389.200 C 268.000 388.980,268.349 388.800,268.776 388.800 C 269.203 388.800,269.666 388.617,269.804 388.393 C 269.942 388.170,270.202 388.078,270.382 388.189 C 270.562 388.300,270.932 388.123,271.204 387.796 C 271.476 387.468,272.038 387.200,272.454 387.200 C 272.870 387.200,273.523 387.040,273.905 386.844 C 274.840 386.364,278.360 384.794,279.600 384.303 C 280.150 384.085,280.913 383.748,281.295 383.553 C 281.677 383.359,282.262 383.200,282.595 383.200 C 282.928 383.200,283.200 383.020,283.200 382.800 C 283.200 382.580,283.545 382.400,283.967 382.400 C 284.388 382.400,284.793 382.222,284.867 382.003 C 284.940 381.785,285.482 381.567,286.071 381.519 C 286.660 381.470,287.075 381.321,286.992 381.188 C 286.910 381.054,287.463 380.721,288.221 380.447 C 288.980 380.173,289.600 379.769,289.600 379.551 C 289.600 379.332,289.760 379.251,289.955 379.372 C 290.150 379.493,290.532 379.323,290.804 378.996 C 291.076 378.668,291.546 378.400,291.849 378.400 C 292.152 378.400,292.400 378.220,292.400 378.000 C 292.400 377.780,292.760 377.600,293.200 377.600 C 293.640 377.600,294.000 377.420,294.000 377.200 C 294.000 376.980,294.360 376.800,294.800 376.800 C 295.240 376.800,295.600 376.620,295.600 376.400 C 295.600 376.180,295.960 376.000,296.400 376.000 C 296.840 376.000,297.200 375.820,297.200 375.600 C 297.200 375.380,297.560 375.200,298.000 375.200 C 298.440 375.200,298.800 375.001,298.800 374.757 C 298.800 374.514,299.070 374.418,299.400 374.545 C 299.730 374.671,300.000 374.629,300.000 374.450 C 300.000 374.272,300.855 373.695,301.900 373.168 C 302.945 372.642,303.890 372.114,304.000 371.996 C 304.503 371.456,311.576 366.800,311.892 366.800 C 312.089 366.800,312.604 366.485,313.038 366.100 C 314.473 364.828,317.149 362.800,317.393 362.800 C 317.525 362.800,317.989 362.469,318.423 362.064 C 318.858 361.659,319.705 361.074,320.307 360.764 C 320.908 360.454,321.850 359.750,322.400 359.200 C 322.950 358.650,323.670 358.200,324.000 358.200 C 324.330 358.200,324.572 358.020,324.538 357.800 C 324.504 357.580,324.729 357.168,325.038 356.884 C 325.347 356.601,325.600 356.474,325.600 356.602 C 325.600 356.731,326.062 356.375,326.626 355.811 C 327.190 355.246,327.824 354.892,328.036 355.022 C 328.247 355.153,328.370 355.084,328.310 354.870 C 328.249 354.655,328.373 354.417,328.584 354.340 C 328.795 354.263,329.635 353.525,330.452 352.700 C 331.269 351.875,332.266 351.186,332.669 351.168 C 333.083 351.151,333.185 351.050,332.904 350.936 C 332.348 350.712,333.207 349.600,333.937 349.600 C 334.312 349.600,335.980 347.986,341.451 342.333 C 342.798 340.940,345.183 338.584,346.751 337.097 C 348.318 335.611,349.600 334.203,349.600 333.969 C 349.600 333.216,350.706 332.334,350.936 332.904 C 351.055 333.196,351.150 333.113,351.168 332.701 C 351.186 332.316,351.920 331.237,352.800 330.303 C 353.680 329.369,354.400 328.458,354.400 328.279 C 354.400 328.099,354.608 328.081,354.862 328.238 C 355.136 328.407,355.215 328.349,355.058 328.094 C 354.912 327.858,355.026 327.425,355.311 327.132 C 355.596 326.840,356.362 325.880,357.014 325.000 C 357.667 324.121,358.532 323.041,358.938 322.600 C 359.344 322.160,360.233 320.990,360.915 320.000 C 361.596 319.010,362.299 318.140,362.477 318.067 C 362.655 317.993,362.800 317.678,362.800 317.367 C 362.800 317.055,362.941 316.800,363.114 316.800 C 363.286 316.800,363.721 316.305,364.079 315.700 C 364.437 315.095,365.196 314.060,365.765 313.400 C 366.334 312.740,366.799 311.975,366.800 311.700 C 366.800 311.425,366.980 311.200,367.200 311.200 C 367.420 311.200,367.600 310.964,367.600 310.675 C 367.600 310.387,367.915 309.795,368.300 309.360 C 368.685 308.925,369.049 308.339,369.109 308.058 C 369.168 307.778,369.591 307.155,370.047 306.674 C 370.503 306.193,371.041 305.440,371.243 305.000 C 371.444 304.560,372.064 303.480,372.621 302.600 C 373.178 301.720,373.737 300.687,373.863 300.304 C 373.988 299.922,374.281 299.727,374.513 299.870 C 374.777 300.033,374.840 299.880,374.681 299.466 C 374.540 299.100,374.599 298.800,374.813 298.800 C 375.026 298.800,375.200 298.440,375.200 298.000 C 375.200 297.560,375.380 297.200,375.600 297.200 C 375.820 297.200,376.000 296.840,376.000 296.400 C 376.000 295.960,376.180 295.600,376.400 295.600 C 376.620 295.600,376.800 295.240,376.800 294.800 C 376.800 294.360,376.980 294.000,377.200 294.000 C 377.420 294.000,377.600 293.655,377.600 293.233 C 377.600 292.812,377.742 292.407,377.915 292.333 C 378.088 292.260,378.719 291.210,379.316 290.000 C 379.914 288.790,380.658 287.350,380.970 286.800 C 381.281 286.250,382.097 284.540,382.784 283.000 C 383.471 281.460,384.205 279.887,384.416 279.505 C 384.627 279.123,384.800 278.538,384.800 278.205 C 384.800 277.872,384.980 277.600,385.200 277.600 C 385.420 277.600,385.600 277.240,385.600 276.800 C 385.600 276.360,385.780 276.000,386.000 276.000 C 386.220 276.000,386.400 275.645,386.400 275.212 C 386.400 274.779,386.760 273.783,387.200 273.000 C 387.640 272.217,388.000 271.311,388.000 270.988 C 388.000 270.665,388.158 270.400,388.350 270.400 C 388.543 270.400,388.700 269.913,388.700 269.317 C 388.700 268.721,388.903 268.166,389.150 268.083 C 389.398 268.001,389.600 267.308,389.600 266.543 C 389.600 265.660,389.756 265.249,390.027 265.417 C 390.261 265.562,390.420 265.437,390.379 265.140 C 390.226 264.026,390.411 262.759,390.700 262.938 C 390.865 263.040,391.038 262.736,391.084 262.262 C 391.293 260.109,391.718 258.400,392.044 258.400 C 392.240 258.400,392.400 257.871,392.400 257.224 C 392.400 256.577,392.580 255.936,392.800 255.800 C 393.020 255.664,393.200 255.149,393.200 254.656 C 393.200 254.163,393.425 253.518,393.700 253.221 C 394.106 252.784,394.088 252.742,393.600 253.000 C 393.112 253.258,393.094 253.216,393.500 252.779 C 393.775 252.482,394.000 251.646,394.000 250.920 C 394.000 250.194,394.161 249.600,394.358 249.600 C 394.555 249.600,394.825 248.880,394.958 248.000 C 395.091 247.120,395.309 245.679,395.442 244.797 C 395.575 243.916,395.845 243.095,396.042 242.974 C 396.239 242.852,396.400 242.033,396.400 241.153 C 396.400 240.188,396.559 239.651,396.800 239.800 C 397.050 239.954,397.200 239.137,397.200 237.624 C 397.200 236.275,397.377 235.200,397.600 235.200 C 397.820 235.200,398.000 234.221,398.000 233.024 C 398.000 231.827,398.180 230.736,398.400 230.600 C 398.620 230.464,398.800 229.103,398.800 227.576 C 398.800 226.049,398.954 224.800,399.142 224.800 C 399.663 224.800,399.787 220.207,399.794 200.600 C 399.801 180.565,399.661 175.115,399.148 175.432 C 398.956 175.551,398.800 174.455,398.800 172.997 C 398.800 171.540,398.632 170.034,398.427 169.651 C 398.222 169.268,397.999 167.945,397.931 166.713 C 397.864 165.480,397.672 164.556,397.504 164.659 C 397.337 164.763,397.200 163.947,397.200 162.847 C 397.200 161.747,397.020 160.736,396.800 160.600 C 396.580 160.464,396.400 159.654,396.400 158.800 C 396.400 157.946,396.220 157.136,396.000 157.000 C 395.780 156.864,395.600 156.043,395.600 155.176 C 395.600 154.309,395.420 153.600,395.200 153.600 C 394.980 153.600,394.800 152.880,394.800 152.000 C 394.800 151.120,394.620 150.400,394.400 150.400 C 394.180 150.400,394.000 149.770,394.000 149.000 C 394.000 148.230,393.850 147.600,393.666 147.600 C 393.482 147.600,393.301 146.835,393.265 145.900 C 393.228 144.965,393.019 144.140,392.799 144.067 C 392.580 143.993,392.400 143.378,392.400 142.700 C 392.400 142.022,392.273 141.594,392.118 141.749 C 391.963 141.904,391.613 140.938,391.340 139.601 C 391.067 138.265,390.567 136.616,390.229 135.937 C 389.890 135.258,389.711 134.545,389.830 134.351 C 389.949 134.158,389.877 134.000,389.668 134.000 C 389.280 134.000,388.599 131.401,388.751 130.500 C 388.797 130.225,388.676 130.000,388.482 130.000 C 388.024 130.000,387.200 128.188,387.200 127.181 C 387.200 126.752,387.020 126.400,386.800 126.400 C 386.580 126.400,386.400 126.040,386.400 125.600 C 386.400 125.160,386.220 124.800,386.000 124.800 C 385.780 124.800,385.600 124.461,385.600 124.046 C 385.600 123.631,385.339 122.789,385.020 122.174 C 384.702 121.560,384.550 120.882,384.682 120.667 C 384.816 120.450,384.718 120.404,384.462 120.562 C 384.159 120.749,384.000 120.495,384.000 119.824 C 384.000 119.261,383.864 118.800,383.698 118.800 C 383.531 118.800,383.160 118.215,382.871 117.500 C 382.583 116.785,382.179 115.887,381.974 115.505 C 381.768 115.123,381.600 114.538,381.600 114.205 C 381.600 113.872,381.420 113.600,381.200 113.600 C 380.980 113.600,380.800 113.330,380.800 113.000 C 380.800 112.670,380.620 112.400,380.400 112.400 C 380.180 112.400,380.000 112.040,380.000 111.600 C 380.000 111.160,379.820 110.800,379.600 110.800 C 379.380 110.800,379.200 110.440,379.200 110.000 C 379.200 109.560,379.020 109.200,378.800 109.200 C 378.580 109.200,378.400 108.840,378.400 108.400 C 378.400 107.960,378.220 107.600,378.000 107.600 C 377.780 107.600,377.600 107.240,377.600 106.800 C 377.600 106.360,377.420 106.000,377.200 106.000 C 376.980 106.000,376.800 105.640,376.800 105.200 C 376.800 104.760,376.620 104.400,376.400 104.400 C 376.180 104.400,376.000 104.122,376.000 103.783 C 376.000 103.444,375.640 102.780,375.200 102.308 C 374.760 101.836,374.400 101.213,374.400 100.925 C 374.400 100.636,374.175 100.397,373.900 100.394 C 373.567 100.390,373.600 100.258,374.000 100.000 C 374.330 99.787,374.408 99.609,374.174 99.606 C 373.588 99.598,371.945 96.595,372.308 96.195 C 372.468 96.017,372.375 96.001,372.100 96.159 C 371.791 96.337,371.600 96.209,371.600 95.824 C 371.600 95.481,371.442 95.200,371.249 95.200 C 371.055 95.200,370.673 94.660,370.400 94.000 C 370.127 93.340,369.789 92.800,369.649 92.800 C 369.322 92.800,368.190 90.304,368.321 89.870 C 368.375 89.689,368.235 89.655,368.010 89.794 C 367.784 89.933,367.600 89.806,367.600 89.512 C 367.600 89.217,367.240 88.717,366.800 88.400 C 366.360 88.083,366.000 87.638,365.999 87.412 C 365.999 87.185,365.456 86.370,364.794 85.600 C 364.131 84.830,363.374 83.718,363.110 83.129 C 362.846 82.540,362.488 82.145,362.315 82.252 C 362.142 82.360,362.000 82.201,362.000 81.899 C 362.000 81.598,361.680 81.002,361.289 80.575 C 360.898 80.149,360.146 79.170,359.618 78.400 C 359.090 77.630,358.375 76.699,358.029 76.330 C 356.903 75.131,355.152 72.849,355.106 72.521 C 355.082 72.344,354.598 71.730,354.031 71.155 C 353.464 70.580,351.740 68.701,350.200 66.980 C 347.652 64.133,343.683 59.843,342.911 59.101 C 338.405 54.774,336.237 52.541,336.310 52.300 C 336.359 52.135,336.245 52.045,336.055 52.100 C 335.865 52.155,334.408 51.030,332.816 49.600 C 331.224 48.170,329.665 46.854,329.351 46.675 C 329.037 46.496,328.058 45.641,327.174 44.775 C 326.291 43.909,325.420 43.200,325.239 43.200 C 324.666 43.200,322.014 40.919,322.279 40.654 C 322.419 40.514,322.183 40.400,321.755 40.400 C 321.327 40.400,320.717 40.040,320.400 39.600 C 320.083 39.160,319.685 38.800,319.516 38.800 C 319.222 38.800,318.096 37.955,316.984 36.900 C 316.694 36.625,316.339 36.400,316.194 36.400 C 315.804 36.400,312.301 33.909,311.553 33.100 C 311.197 32.715,310.612 32.400,310.253 32.400 C 309.894 32.400,309.600 32.220,309.600 32.000 C 309.600 31.780,309.358 31.600,309.062 31.600 C 308.766 31.600,308.202 31.244,307.809 30.809 C 307.415 30.375,306.952 30.106,306.779 30.213 C 306.606 30.320,306.101 29.947,305.658 29.383 C 305.215 28.820,304.751 28.368,304.626 28.379 C 303.810 28.454,303.583 28.351,303.797 28.005 C 303.933 27.786,303.788 27.707,303.472 27.828 C 303.159 27.948,302.649 27.811,302.339 27.523 C 300.937 26.223,299.888 25.443,300.155 25.900 C 300.316 26.175,300.257 26.400,300.024 26.400 C 299.791 26.400,299.600 26.220,299.600 26.000 C 299.600 25.780,299.322 25.600,298.983 25.600 C 298.644 25.600,297.980 25.240,297.508 24.800 C 297.036 24.360,296.413 24.000,296.125 24.000 C 295.836 24.000,295.600 23.820,295.600 23.600 C 295.600 23.380,295.240 23.200,294.800 23.200 C 294.360 23.200,294.000 23.020,294.000 22.800 C 294.000 22.580,293.640 22.400,293.200 22.400 C 292.760 22.400,292.400 22.220,292.400 22.000 C 292.400 21.780,292.040 21.600,291.600 21.600 C 291.160 21.600,290.800 21.420,290.800 21.200 C 290.800 20.980,290.530 20.800,290.200 20.800 C 289.870 20.800,289.600 20.620,289.600 20.400 C 289.600 20.180,289.347 20.000,289.038 20.000 C 288.372 20.000,285.059 18.332,284.867 17.900 C 284.793 17.735,284.405 17.600,284.004 17.600 C 283.604 17.600,282.584 17.254,281.738 16.830 C 280.892 16.407,279.615 15.823,278.900 15.533 C 278.185 15.242,277.600 14.908,277.600 14.790 C 277.600 14.671,277.146 14.537,276.592 14.491 C 276.037 14.445,275.168 14.135,274.660 13.802 C 274.152 13.470,272.806 12.921,271.668 12.583 C 270.531 12.245,269.600 11.832,269.600 11.665 C 269.600 11.497,269.195 11.334,268.700 11.303 C 267.039 11.197,265.406 10.700,264.700 10.086 C 264.315 9.750,264.000 9.600,264.000 9.752 C 264.000 9.904,263.595 9.804,263.100 9.529 C 262.605 9.255,262.030 9.080,261.822 9.141 C 261.614 9.202,261.074 9.085,260.622 8.881 C 259.039 8.168,256.934 7.600,255.872 7.600 C 255.282 7.600,254.800 7.420,254.800 7.200 C 254.800 6.980,254.260 6.800,253.600 6.800 C 252.940 6.800,252.400 6.620,252.400 6.400 C 252.400 6.180,251.669 6.000,250.776 6.000 C 249.883 6.000,249.243 5.855,249.353 5.677 C 249.462 5.499,248.798 5.309,247.876 5.255 C 246.954 5.201,246.029 4.987,245.820 4.779 C 245.611 4.570,244.771 4.400,243.953 4.400 C 243.136 4.400,242.407 4.229,242.333 4.020 C 242.260 3.811,241.390 3.602,240.400 3.555 C 239.410 3.508,238.420 3.338,238.200 3.177 C 237.980 3.017,236.990 2.785,236.000 2.662 C 235.010 2.538,233.120 2.239,231.800 1.997 C 222.224 0.239,194.350 -0.613,181.200 0.450 M243.572 81.658 C 250.620 83.917,255.127 91.520,252.834 97.281 C 252.633 97.787,251.896 99.730,251.196 101.600 C 249.663 105.698,249.427 106.311,248.892 107.600 C 248.663 108.150,247.934 110.040,247.272 111.800 C 246.610 113.560,244.993 117.790,243.680 121.200 C 242.367 124.610,240.444 129.650,239.406 132.400 C 238.369 135.150,236.446 140.190,235.133 143.600 C 233.820 147.010,232.200 151.240,231.534 153.000 C 230.869 154.760,230.178 156.560,230.000 157.000 C 229.640 157.890,228.649 160.485,224.197 172.200 C 217.860 188.877,218.263 187.825,217.692 189.200 C 217.463 189.750,216.737 191.640,216.078 193.400 C 215.418 195.160,213.974 198.940,212.869 201.800 C 211.764 204.660,209.665 210.150,208.205 214.000 C 206.746 217.850,204.951 222.530,204.218 224.400 C 203.485 226.270,202.226 229.600,201.420 231.800 C 200.615 234.000,199.762 236.250,199.524 236.800 C 199.017 237.976,198.859 238.383,197.272 242.600 C 196.610 244.360,194.993 248.590,193.680 252.000 C 192.367 255.410,190.446 260.450,189.412 263.200 C 187.226 269.010,184.468 276.247,184.000 277.400 C 183.821 277.840,182.921 280.180,182.000 282.600 C 181.079 285.020,180.179 287.360,180.001 287.800 C 179.822 288.240,179.132 290.040,178.467 291.800 C 177.214 295.116,174.900 301.106,172.032 308.461 C 168.562 317.358,161.821 321.010,154.690 317.857 C 147.225 314.556,145.086 307.650,148.816 298.900 C 149.467 297.374,149.877 296.324,151.200 292.800 C 151.902 290.930,152.622 289.040,152.801 288.600 C 153.293 287.384,156.072 280.106,158.603 273.400 C 159.849 270.100,161.768 265.060,162.868 262.200 C 163.967 259.340,165.589 255.110,166.471 252.800 C 167.353 250.490,168.221 248.240,168.399 247.800 C 168.578 247.360,169.298 245.470,170.000 243.600 C 170.702 241.730,171.427 239.840,171.612 239.400 C 171.797 238.960,173.140 235.450,174.597 231.600 C 176.055 227.750,177.974 222.710,178.864 220.400 C 179.753 218.090,181.164 214.400,182.000 212.200 C 184.899 204.568,186.877 199.396,187.199 198.600 C 187.378 198.160,188.071 196.360,188.739 194.600 C 189.983 191.323,194.796 178.711,197.669 171.200 C 198.552 168.890,199.421 166.640,199.599 166.200 C 199.778 165.760,200.498 163.870,201.200 162.000 C 201.902 160.130,202.639 158.195,202.838 157.700 C 203.037 157.205,203.363 156.395,203.562 155.900 C 204.012 154.782,205.231 151.580,210.606 137.400 C 212.941 131.240,215.758 123.860,216.865 121.000 C 217.973 118.140,219.418 114.360,220.078 112.600 C 220.737 110.840,221.463 108.950,221.692 108.400 C 222.299 106.937,222.510 106.388,224.999 99.800 C 229.324 88.350,229.651 87.630,231.414 85.669 C 234.631 82.090,239.702 80.417,243.572 81.658 M253.165 106.200 C 253.197 108.625,252.382 111.370,249.601 118.200 C 249.084 119.470,246.393 126.507,241.801 138.600 C 239.462 144.760,237.397 150.160,237.212 150.600 C 237.027 151.040,236.302 152.930,235.600 154.800 C 234.898 156.670,234.178 158.560,233.999 159.000 C 233.821 159.440,232.953 161.690,232.071 164.000 C 231.189 166.310,229.574 170.540,228.481 173.400 C 227.389 176.260,225.647 180.850,224.609 183.600 C 223.571 186.350,222.380 189.363,221.961 190.296 C 221.543 191.228,221.201 192.128,221.202 192.296 C 221.204 192.550,219.627 196.773,218.399 199.800 C 217.855 201.143,214.956 208.694,212.794 214.400 C 211.669 217.370,209.753 222.410,208.538 225.600 C 207.322 228.790,205.787 232.840,205.126 234.600 C 203.639 238.557,203.412 239.146,202.892 240.400 C 202.663 240.950,201.902 242.930,201.200 244.800 C 200.498 246.670,199.761 248.605,199.562 249.100 C 199.363 249.595,199.037 250.405,198.838 250.900 C 198.639 251.395,197.934 253.240,197.272 255.000 C 196.161 257.953,193.067 266.082,189.128 276.400 C 188.246 278.710,187.362 281.005,187.162 281.500 C 186.963 281.995,186.637 282.805,186.438 283.300 C 186.239 283.795,185.537 285.640,184.878 287.400 C 183.196 291.891,180.389 299.246,179.992 300.200 C 179.669 300.978,178.941 302.892,174.209 315.400 C 170.114 326.224,168.804 328.192,164.359 330.186 C 155.262 334.268,145.068 325.932,147.354 316.282 C 148.067 313.274,147.943 313.307,150.237 315.518 C 155.745 320.827,163.983 320.696,168.904 315.222 C 170.489 313.460,171.096 312.295,173.293 306.800 C 173.513 306.250,173.822 305.530,173.979 305.200 C 174.137 304.870,174.515 303.745,174.820 302.700 C 175.125 301.655,175.515 300.800,175.687 300.800 C 175.859 300.800,176.000 300.438,176.000 299.995 C 176.000 299.552,176.159 298.877,176.353 298.495 C 176.548 298.113,176.929 297.260,177.200 296.600 C 177.471 295.940,177.852 295.087,178.047 294.705 C 178.241 294.323,178.400 293.648,178.400 293.205 C 178.400 292.762,178.580 292.400,178.800 292.400 C 179.020 292.400,179.200 292.051,179.200 291.624 C 179.200 291.197,179.380 290.736,179.600 290.600 C 179.820 290.464,180.000 290.001,180.000 289.571 C 180.000 289.141,180.159 288.477,180.353 288.095 C 180.548 287.713,180.884 286.950,181.100 286.400 C 181.316 285.850,181.697 284.905,181.946 284.300 C 182.791 282.251,183.120 281.405,184.007 279.000 C 184.494 277.680,185.231 275.837,185.646 274.904 C 186.061 273.972,186.400 273.054,186.400 272.864 C 186.400 272.675,187.210 270.468,188.199 267.960 C 189.189 265.452,189.999 263.085,189.999 262.700 C 190.000 262.315,190.141 262.000,190.313 262.000 C 190.485 262.000,190.875 261.145,191.180 260.100 C 191.485 259.055,191.863 257.930,192.021 257.600 C 192.178 257.270,192.529 256.460,192.800 255.800 C 193.071 255.140,193.452 254.287,193.647 253.905 C 193.841 253.523,194.000 252.848,194.000 252.405 C 194.000 251.962,194.180 251.600,194.400 251.600 C 194.620 251.600,194.800 251.150,194.800 250.600 C 194.800 250.050,194.941 249.600,195.113 249.600 C 195.285 249.600,195.675 248.745,195.980 247.700 C 196.285 246.655,196.663 245.530,196.821 245.200 C 196.978 244.870,197.329 244.060,197.600 243.400 C 197.871 242.740,198.252 241.887,198.447 241.505 C 198.641 241.123,198.800 240.448,198.800 240.005 C 198.800 239.562,198.941 239.200,199.113 239.200 C 199.285 239.200,199.675 238.345,199.980 237.300 C 200.285 236.255,200.663 235.130,200.821 234.800 C 201.550 233.270,205.142 223.912,206.118 221.000 C 206.843 218.836,207.864 216.250,208.447 215.105 C 208.641 214.723,208.800 214.048,208.800 213.605 C 208.800 213.162,208.980 212.800,209.200 212.800 C 209.420 212.800,209.600 212.451,209.600 212.024 C 209.600 211.597,209.780 211.136,210.000 211.000 C 210.220 210.864,210.400 210.401,210.400 209.971 C 210.400 209.541,210.559 208.877,210.753 208.495 C 210.948 208.113,211.284 207.350,211.500 206.800 C 211.716 206.250,212.097 205.305,212.346 204.700 C 212.596 204.095,213.001 203.105,213.247 202.500 C 213.492 201.895,213.852 201.087,214.047 200.705 C 214.241 200.323,214.400 199.736,214.400 199.400 C 214.400 199.064,214.565 198.477,214.767 198.095 C 215.529 196.655,216.800 193.593,216.800 193.199 C 216.800 192.974,216.959 192.477,217.153 192.095 C 217.618 191.181,218.206 189.726,218.807 188.000 C 219.075 187.230,219.633 185.837,220.047 184.904 C 220.461 183.972,220.800 183.076,220.800 182.913 C 220.800 182.297,223.907 174.152,224.847 172.305 C 225.041 171.923,225.200 171.259,225.200 170.829 C 225.200 170.399,225.380 169.936,225.600 169.800 C 225.820 169.664,226.000 169.203,226.000 168.776 C 226.000 168.349,226.180 168.000,226.400 168.000 C 226.620 168.000,226.800 167.638,226.800 167.195 C 226.800 166.752,226.959 166.077,227.153 165.695 C 227.348 165.313,227.729 164.460,228.000 163.800 C 228.271 163.140,228.652 162.287,228.847 161.905 C 229.041 161.523,229.200 160.848,229.200 160.405 C 229.200 159.962,229.380 159.600,229.600 159.600 C 229.820 159.600,230.000 159.251,230.000 158.824 C 230.000 158.397,230.180 157.936,230.400 157.800 C 230.620 157.664,230.800 157.201,230.800 156.771 C 230.800 156.341,230.959 155.677,231.153 155.295 C 231.348 154.913,231.684 154.150,231.900 153.600 C 232.116 153.050,232.521 152.060,232.800 151.400 C 233.415 149.945,233.667 149.290,234.807 146.200 C 235.294 144.880,236.031 143.037,236.446 142.104 C 236.861 141.172,237.200 140.228,237.200 140.007 C 237.200 139.562,239.843 132.604,240.429 131.505 C 240.633 131.123,240.800 130.448,240.800 130.005 C 240.800 129.562,240.980 129.200,241.200 129.200 C 241.420 129.200,241.600 128.838,241.600 128.395 C 241.600 127.952,241.780 127.232,242.000 126.795 C 242.220 126.358,242.580 125.642,242.800 125.205 C 243.020 124.768,243.200 124.048,243.200 123.605 C 243.200 123.162,243.380 122.800,243.600 122.800 C 243.820 122.800,244.000 122.451,244.000 122.024 C 244.000 121.597,244.180 121.136,244.400 121.000 C 244.620 120.864,244.800 120.313,244.800 119.776 C 244.800 119.239,244.980 118.800,245.200 118.800 C 245.420 118.800,245.600 118.438,245.600 117.995 C 245.600 117.552,245.759 116.877,245.953 116.495 C 246.148 116.113,246.508 115.305,246.753 114.700 C 246.999 114.095,247.404 113.105,247.654 112.500 C 247.903 111.895,248.284 110.950,248.500 110.400 C 248.716 109.850,249.052 109.087,249.247 108.705 C 249.441 108.323,249.600 107.772,249.600 107.481 C 249.600 107.189,249.960 106.205,250.400 105.294 C 250.840 104.384,251.200 103.396,251.200 103.099 C 251.200 102.803,251.422 102.338,251.693 102.067 C 252.369 101.391,253.130 103.528,253.165 106.200 M138.966 138.422 C 150.354 142.682,149.934 155.658,138.178 162.762 C 132.470 166.211,116.478 176.030,108.800 180.800 C 106.930 181.962,104.590 183.402,103.600 184.000 C 102.610 184.597,98.380 187.209,94.200 189.803 C 90.020 192.397,85.790 195.003,84.800 195.595 C 81.501 197.568,78.456 199.587,78.231 199.950 C 77.910 200.469,79.510 201.613,85.000 204.789 C 85.660 205.171,89.080 207.252,92.600 209.414 C 96.120 211.577,100.170 214.059,101.600 214.930 C 103.030 215.802,104.920 217.003,105.800 217.598 C 106.680 218.194,107.586 218.753,107.814 218.841 C 108.174 218.980,115.144 223.232,119.200 225.789 C 120.740 226.759,124.822 229.284,128.700 231.665 C 146.468 242.574,146.919 243.032,146.956 250.200 C 146.992 257.453,141.980 262.400,134.595 262.400 C 131.071 262.400,129.738 261.829,122.000 257.009 C 119.250 255.295,114.750 252.511,112.000 250.821 C 105.985 247.125,92.015 238.522,88.400 236.287 C 86.970 235.403,84.587 233.897,83.105 232.940 C 81.622 231.983,80.334 231.200,80.242 231.200 C 80.150 231.200,77.313 229.472,73.937 227.359 C 70.562 225.247,66.307 222.592,64.481 221.459 C 59.502 218.369,56.349 214.119,54.033 207.373 C 53.134 204.754,52.823 196.205,53.558 194.319 C 53.755 193.813,54.157 192.595,54.452 191.611 C 56.366 185.209,60.335 181.009,69.958 175.200 C 73.785 172.890,78.195 170.208,79.758 169.240 C 81.321 168.273,83.680 166.813,85.000 165.996 C 86.320 165.180,90.091 162.843,93.380 160.803 C 96.669 158.763,101.169 156.014,103.380 154.695 C 105.591 153.376,108.152 151.780,109.072 151.148 C 109.992 150.517,110.859 150.000,111.000 150.000 C 111.141 150.000,112.013 149.479,112.938 148.843 C 113.863 148.206,115.516 147.150,116.610 146.497 C 117.705 145.843,120.762 143.979,123.404 142.354 C 130.246 138.147,131.378 137.664,134.485 137.627 C 135.872 137.611,137.633 137.923,138.966 138.422 M269.434 138.339 C 270.546 138.746,274.594 141.020,278.428 143.393 C 282.263 145.766,285.973 148.033,286.673 148.432 C 287.373 148.830,288.903 149.775,290.073 150.532 C 292.030 151.797,297.935 155.446,311.400 163.711 C 316.433 166.800,318.834 168.283,324.100 171.552 C 325.475 172.406,329.404 174.837,332.831 176.955 C 343.261 183.401,346.921 189.380,346.941 200.000 C 346.961 211.023,343.170 217.002,331.703 224.029 C 324.785 228.268,322.608 229.609,316.800 233.206 C 313.855 235.030,310.374 237.175,298.600 244.423 C 297.280 245.235,294.670 246.847,292.800 248.004 C 290.930 249.160,288.827 250.433,288.127 250.831 C 287.427 251.230,285.897 252.174,284.727 252.930 C 269.701 262.636,265.826 264.008,260.496 261.512 C 254.845 258.867,251.265 251.109,253.477 246.304 C 253.706 245.807,254.142 244.872,254.446 244.226 C 255.545 241.895,260.226 238.213,266.200 234.979 C 266.640 234.741,267.990 233.906,269.200 233.123 C 270.410 232.340,275.450 229.223,280.400 226.197 C 285.350 223.172,290.750 219.842,292.400 218.797 C 295.799 216.646,311.650 206.915,313.245 206.000 C 317.409 203.611,322.000 200.552,322.000 200.165 C 322.000 199.698,320.395 198.668,304.000 188.615 C 299.050 185.579,293.650 182.241,292.000 181.195 C 290.350 180.150,285.400 177.080,281.000 174.374 C 276.600 171.667,271.560 168.560,269.800 167.470 C 268.040 166.379,265.790 165.002,264.800 164.409 C 260.053 161.566,257.284 159.601,256.061 158.208 C 251.588 153.113,252.215 144.720,257.374 140.650 C 258.893 139.451,259.395 139.172,262.000 138.075 C 263.591 137.405,267.233 137.535,269.434 138.339 M146.950 162.600 C 146.966 170.092,147.500 169.655,111.600 191.527 C 108.190 193.604,104.680 195.785,103.800 196.373 C 102.920 196.961,100.850 198.240,99.200 199.215 C 97.550 200.189,96.140 201.125,96.067 201.294 C 95.993 201.462,95.756 201.600,95.539 201.600 C 95.322 201.600,94.359 202.140,93.400 202.800 C 92.441 203.460,91.549 204.000,91.419 204.000 C 91.289 204.000,90.503 204.450,89.672 205.000 C 88.208 205.969,86.014 205.789,86.003 204.700 C 86.001 204.535,85.815 204.400,85.590 204.400 C 85.364 204.400,83.742 203.438,81.985 202.262 L 78.791 200.123 81.591 198.262 C 83.131 197.238,84.495 196.400,84.623 196.400 C 84.751 196.400,85.641 195.860,86.600 195.200 C 87.559 194.540,88.454 194.000,88.589 194.000 C 88.723 194.000,89.220 193.640,89.692 193.200 C 90.164 192.760,90.787 192.400,91.075 192.400 C 91.364 192.400,91.600 192.241,91.600 192.047 C 91.600 191.852,91.915 191.590,92.300 191.464 C 92.685 191.337,93.665 190.821,94.477 190.317 C 95.290 189.813,97.720 188.326,99.877 187.013 C 102.035 185.701,103.890 184.531,104.000 184.413 C 104.364 184.024,106.588 182.754,107.300 182.529 C 107.685 182.407,108.000 182.148,108.000 181.953 C 108.000 181.759,108.236 181.600,108.525 181.600 C 108.813 181.600,109.406 181.285,109.842 180.900 C 110.847 180.012,112.791 178.817,113.700 178.529 C 114.085 178.407,114.400 178.148,114.400 177.953 C 114.400 177.759,114.597 177.600,114.838 177.600 C 115.079 177.600,115.754 177.261,116.338 176.847 C 116.922 176.433,118.030 175.736,118.800 175.298 C 119.570 174.860,122.450 173.106,125.200 171.400 C 127.950 169.694,130.829 167.939,131.598 167.501 C 132.367 167.062,133.749 166.185,134.670 165.552 C 135.591 164.918,136.537 164.400,136.772 164.400 C 137.007 164.400,137.200 164.220,137.200 164.000 C 137.200 163.780,137.470 163.600,137.800 163.600 C 138.130 163.600,138.400 163.420,138.400 163.200 C 138.400 162.980,138.593 162.800,138.828 162.800 C 139.516 162.800,142.879 160.368,144.400 158.770 L 145.800 157.300 146.372 158.350 C 146.731 159.009,146.946 160.593,146.950 162.600 M258.625 161.200 C 258.941 161.200,259.200 161.380,259.200 161.600 C 259.200 161.820,259.390 162.000,259.622 162.000 C 259.854 162.000,261.104 162.720,262.400 163.600 C 263.696 164.480,264.946 165.200,265.178 165.200 C 265.410 165.200,265.600 165.380,265.600 165.600 C 265.600 165.820,265.793 166.000,266.028 166.000 C 266.263 166.000,267.211 166.495,268.135 167.100 C 270.111 168.395,270.415 168.582,274.600 171.064 C 276.360 172.108,277.890 173.060,278.000 173.181 C 278.353 173.568,280.577 174.842,281.300 175.071 C 281.685 175.193,282.000 175.452,282.000 175.647 C 282.000 175.841,282.270 176.000,282.600 176.000 C 282.930 176.000,283.200 176.180,283.200 176.400 C 283.200 176.620,283.390 176.800,283.622 176.800 C 283.854 176.800,285.104 177.520,286.400 178.400 C 287.696 179.280,288.946 180.000,289.178 180.000 C 289.410 180.000,289.600 180.159,289.600 180.353 C 289.600 180.548,289.915 180.807,290.300 180.929 C 290.961 181.138,292.870 182.226,293.783 182.914 C 294.625 183.548,301.185 187.600,301.369 187.600 C 301.474 187.600,302.360 188.140,303.338 188.800 C 304.316 189.460,305.315 190.000,305.558 190.000 C 305.801 190.000,306.000 190.158,306.000 190.351 C 306.000 190.545,306.540 190.927,307.200 191.200 C 307.860 191.473,308.400 191.855,308.400 192.049 C 308.400 192.242,308.678 192.400,309.017 192.400 C 309.356 192.400,310.020 192.760,310.492 193.200 C 310.964 193.640,311.587 194.000,311.875 194.000 C 312.164 194.000,312.400 194.180,312.400 194.400 C 312.400 194.620,312.593 194.800,312.828 194.800 C 313.063 194.800,314.041 195.340,315.000 196.000 C 315.959 196.660,316.937 197.200,317.172 197.200 C 317.407 197.200,317.600 197.380,317.600 197.600 C 317.600 197.820,317.870 198.000,318.200 198.000 C 318.530 198.000,318.800 198.180,318.800 198.400 C 318.800 198.620,318.986 198.800,319.214 198.800 C 319.442 198.800,320.078 199.094,320.627 199.454 L 321.626 200.109 320.234 201.054 C 319.469 201.574,318.735 202.000,318.603 202.000 C 318.472 202.000,317.030 202.900,315.400 204.000 C 313.770 205.100,312.323 206.000,312.184 206.000 C 311.919 206.000,303.289 200.716,298.705 197.746 C 297.222 196.786,295.928 196.000,295.828 196.000 C 295.641 196.000,289.827 192.389,285.105 189.340 C 283.622 188.383,282.313 187.600,282.196 187.600 C 282.078 187.600,280.622 186.700,278.961 185.600 C 277.300 184.500,275.852 183.600,275.743 183.600 C 275.633 183.600,274.759 183.060,273.800 182.400 C 272.841 181.740,271.951 181.200,271.822 181.200 C 271.693 181.200,270.645 180.590,269.494 179.844 C 268.342 179.098,265.420 177.272,263.000 175.787 C 254.199 170.387,251.600 165.635,253.669 158.728 L 254.138 157.162 256.094 159.181 C 257.170 160.292,258.309 161.200,258.625 161.200 M346.962 214.800 C 346.538 220.250,344.290 225.587,340.636 229.820 C 338.495 232.300,337.298 233.125,324.400 241.011 C 316.446 245.874,315.326 246.568,312.705 248.260 C 311.222 249.217,309.915 250.000,309.799 250.000 C 309.683 250.000,308.600 250.630,307.394 251.400 C 306.187 252.170,304.198 253.440,302.973 254.222 C 301.748 255.004,300.173 255.972,299.473 256.374 C 298.773 256.775,296.220 258.328,293.800 259.826 C 291.380 261.323,287.150 263.925,284.400 265.609 C 281.650 267.292,277.870 269.623,276.000 270.789 C 267.399 276.153,262.219 276.355,256.962 271.530 C 253.584 268.431,252.087 262.339,253.737 258.414 L 254.275 257.136 255.237 258.273 C 255.767 258.899,256.830 259.850,257.600 260.386 C 258.370 260.923,259.090 261.461,259.200 261.583 C 260.163 262.649,269.600 263.390,269.600 262.400 C 269.600 262.180,269.853 262.000,270.162 262.000 C 270.828 262.000,274.141 260.332,274.333 259.900 C 274.407 259.735,274.634 259.600,274.839 259.600 C 275.045 259.600,276.155 258.996,277.306 258.257 C 281.163 255.782,285.802 252.897,287.208 252.100 C 290.041 250.491,293.004 248.591,293.133 248.300 C 293.207 248.135,293.444 248.000,293.661 248.000 C 293.878 248.000,294.841 247.460,295.800 246.800 C 296.759 246.140,297.737 245.600,297.972 245.600 C 298.207 245.600,298.400 245.420,298.400 245.200 C 298.400 244.980,298.670 244.800,299.000 244.800 C 299.330 244.800,299.600 244.620,299.600 244.400 C 299.600 244.180,299.793 244.000,300.028 244.000 C 300.263 244.000,301.241 243.460,302.200 242.800 C 303.159 242.140,304.059 241.600,304.200 241.600 C 304.341 241.600,305.241 241.060,306.200 240.400 C 307.159 239.740,308.137 239.200,308.372 239.200 C 308.607 239.200,308.800 239.032,308.800 238.827 C 308.800 238.622,309.151 238.342,309.580 238.206 C 310.010 238.070,311.725 237.068,313.393 235.979 C 315.060 234.891,316.519 234.000,316.634 234.000 C 316.750 234.000,317.904 233.280,319.200 232.400 C 320.496 231.520,321.712 230.800,321.903 230.800 C 322.093 230.800,322.606 230.485,323.042 230.100 C 324.047 229.212,325.991 228.017,326.900 227.729 C 327.285 227.607,327.600 227.348,327.600 227.153 C 327.600 226.959,327.836 226.800,328.125 226.800 C 328.413 226.800,328.998 226.479,329.425 226.087 C 329.851 225.695,330.867 225.060,331.681 224.677 C 332.496 224.294,333.396 223.759,333.681 223.489 C 333.967 223.219,334.920 222.639,335.800 222.199 C 339.195 220.504,345.600 212.624,345.600 210.144 C 345.600 209.845,345.780 209.600,346.000 209.600 C 346.220 209.600,346.424 209.015,346.452 208.300 C 346.486 207.470,346.630 207.868,346.850 209.400 C 347.040 210.720,347.090 213.150,346.962 214.800 M54.039 209.380 C 54.237 209.589,54.400 210.084,54.400 210.480 C 54.400 210.876,54.536 211.200,54.702 211.200 C 54.869 211.200,55.258 211.785,55.568 212.500 C 56.765 215.265,61.668 221.200,62.755 221.200 C 62.967 221.200,64.500 222.100,66.161 223.200 C 67.822 224.300,69.288 225.200,69.419 225.200 C 69.549 225.200,70.441 225.740,71.400 226.400 C 72.359 227.060,73.337 227.600,73.572 227.600 C 73.807 227.600,74.000 227.750,74.000 227.932 C 74.000 228.115,74.495 228.515,75.100 228.820 C 75.705 229.126,76.952 229.876,77.872 230.488 C 78.792 231.099,79.737 231.600,79.972 231.600 C 80.207 231.600,80.400 231.780,80.400 232.000 C 80.400 232.220,80.590 232.400,80.822 232.400 C 81.054 232.400,82.269 233.086,83.522 233.924 C 84.775 234.763,87.302 236.338,89.137 237.424 C 90.973 238.511,93.133 239.813,93.937 240.317 C 94.742 240.821,95.715 241.337,96.100 241.464 C 96.485 241.590,96.800 241.852,96.800 242.047 C 96.800 242.241,97.070 242.400,97.400 242.400 C 97.730 242.400,98.000 242.580,98.000 242.800 C 98.000 243.020,98.190 243.200,98.422 243.200 C 98.654 243.200,99.904 243.920,101.200 244.800 C 102.496 245.680,103.746 246.400,103.978 246.400 C 104.210 246.400,104.400 246.580,104.400 246.800 C 104.400 247.020,104.583 247.200,104.806 247.200 C 105.030 247.200,106.155 247.802,107.306 248.537 C 108.458 249.272,110.850 250.802,112.623 251.937 C 114.396 253.072,115.962 254.000,116.103 254.000 C 116.244 254.000,117.160 254.540,118.138 255.200 C 119.116 255.860,120.032 256.400,120.175 256.400 C 120.317 256.400,120.820 256.760,121.292 257.200 C 121.764 257.640,122.387 258.000,122.675 258.000 C 122.964 258.000,123.200 258.180,123.200 258.400 C 123.200 258.620,123.478 258.800,123.817 258.800 C 124.156 258.800,124.820 259.160,125.292 259.600 C 125.764 260.040,126.387 260.400,126.675 260.400 C 126.964 260.400,127.200 260.580,127.200 260.800 C 127.200 261.020,127.560 261.200,128.000 261.200 C 128.440 261.200,128.800 261.380,128.800 261.600 C 128.800 261.820,129.149 262.000,129.576 262.000 C 130.003 262.000,130.464 262.180,130.600 262.400 C 130.738 262.623,132.596 262.800,134.800 262.800 C 137.004 262.800,138.862 262.623,139.000 262.400 C 139.136 262.180,139.597 262.000,140.024 262.000 C 140.451 262.000,140.800 261.820,140.800 261.600 C 140.800 261.380,141.052 261.200,141.359 261.200 C 141.667 261.200,142.822 260.316,143.926 259.235 L 145.932 257.270 146.459 258.535 C 148.722 263.972,145.026 272.096,139.377 274.102 C 134.654 275.779,130.839 275.001,124.600 271.086 C 120.927 268.782,118.310 267.158,112.400 263.517 C 110.090 262.093,105.902 259.505,103.093 257.764 C 100.284 256.024,97.393 254.240,96.668 253.800 C 91.741 250.810,90.225 249.882,87.200 248.001 C 85.330 246.839,81.010 244.180,77.600 242.092 C 74.190 240.004,70.950 237.980,70.400 237.595 C 69.425 236.912,68.618 236.424,63.887 233.660 C 57.427 229.885,53.158 221.258,53.246 212.157 C 53.272 209.541,53.379 207.760,53.485 208.200 C 53.591 208.640,53.840 209.171,54.039 209.380 " stroke="none" fill="#73c3ab" fill-rule="evenodd"></path><path id="path2" d="M264.764 10.156 C 265.280 10.778,267.600 11.248,267.600 10.731 C 267.600 10.549,267.060 10.400,266.400 10.400 C 265.740 10.400,265.200 10.220,265.200 10.000 C 265.200 9.780,264.998 9.600,264.751 9.600 C 264.425 9.600,264.429 9.753,264.764 10.156 M132.400 10.800 C 132.400 11.301,132.824 11.301,133.600 10.800 C 134.085 10.486,134.028 10.411,133.300 10.406 C 132.805 10.403,132.400 10.580,132.400 10.800 M302.000 27.139 C 302.000 27.311,302.630 27.752,303.400 28.119 C 304.170 28.487,304.800 28.718,304.800 28.633 C 304.800 28.548,304.170 28.107,303.400 27.653 C 302.630 27.199,302.000 26.968,302.000 27.139 M95.544 28.423 C 94.802 29.069,94.771 29.158,95.400 28.836 C 96.757 28.142,97.422 27.613,96.944 27.606 C 96.694 27.603,96.064 27.970,95.544 28.423 M312.000 33.557 C 312.000 33.754,312.285 34.024,312.633 34.157 C 313.611 34.533,313.708 34.451,313.057 33.800 C 312.377 33.120,312.000 33.033,312.000 33.557 M81.260 37.842 C 80.445 38.763,80.882 38.845,82.006 37.982 C 82.656 37.482,82.792 37.220,82.400 37.224 C 82.070 37.228,81.557 37.505,81.260 37.842 M320.000 39.025 C 320.000 39.325,321.073 40.400,321.371 40.400 C 321.880 40.400,321.551 39.762,320.800 39.293 C 320.360 39.018,320.000 38.898,320.000 39.025 M70.628 46.200 C 69.787 46.970,69.257 47.597,69.450 47.594 C 69.971 47.585,73.070 44.833,72.578 44.815 C 72.346 44.807,71.469 45.430,70.628 46.200 M328.000 45.143 C 328.000 45.697,329.156 46.801,329.729 46.794 C 330.029 46.790,330.054 46.681,329.796 46.494 C 329.574 46.332,329.079 45.872,328.696 45.471 C 328.313 45.071,328.000 44.923,328.000 45.143 M333.241 50.100 C 333.337 50.155,334.309 51.010,335.401 52.000 C 336.581 53.070,336.984 53.317,336.393 52.609 C 335.006 50.944,333.948 50.000,333.472 50.000 C 333.249 50.000,333.145 50.045,333.241 50.100 M63.402 52.615 C 62.134 53.833,61.168 54.901,61.254 54.987 C 61.341 55.074,62.516 54.077,63.866 52.772 C 65.216 51.468,66.182 50.400,66.014 50.400 C 65.845 50.400,64.670 51.397,63.402 52.615 M52.500 63.477 C 51.345 64.708,50.400 65.899,50.400 66.124 C 50.400 66.349,50.445 66.454,50.500 66.357 C 50.555 66.260,51.674 65.060,52.987 63.690 C 54.301 62.321,55.201 61.209,54.987 61.220 C 54.774 61.231,53.655 62.247,52.500 63.477 M348.422 65.096 C 349.180 65.918,349.845 66.668,349.900 66.762 C 349.955 66.856,350.088 66.846,350.195 66.739 C 350.433 66.501,347.821 63.600,347.368 63.600 C 347.189 63.600,347.663 64.273,348.422 65.096 M46.600 70.162 C 45.204 71.655,44.680 72.413,44.895 72.628 C 45.010 72.743,45.687 72.100,46.400 71.200 C 47.788 69.447,47.923 68.748,46.600 70.162 M42.267 75.467 C 41.884 75.849,41.938 76.400,42.357 76.400 C 42.554 76.400,42.818 76.130,42.945 75.800 C 43.179 75.190,42.753 74.981,42.267 75.467 M360.093 79.200 C 360.368 79.640,360.731 80.000,360.900 80.000 C 361.069 80.000,360.982 79.640,360.707 79.200 C 360.432 78.760,360.069 78.400,359.900 78.400 C 359.731 78.400,359.818 78.760,360.093 79.200 M364.093 84.800 C 364.562 85.551,365.200 85.880,365.200 85.371 C 365.200 85.073,364.125 84.000,363.825 84.000 C 363.698 84.000,363.818 84.360,364.093 84.800 M373.829 100.306 C 374.065 100.468,374.384 100.941,374.539 101.357 C 374.693 101.774,374.919 102.014,375.042 101.892 C 375.385 101.549,374.435 99.999,373.886 100.006 C 373.556 100.010,373.538 100.107,373.829 100.306 M251.693 102.067 C 251.422 102.338,251.200 102.803,251.200 103.099 C 251.200 103.396,250.840 104.384,250.400 105.294 C 249.960 106.205,249.600 107.189,249.600 107.481 C 249.600 107.772,249.441 108.323,249.247 108.705 C 249.052 109.087,248.716 109.850,248.500 110.400 C 248.284 110.950,247.903 111.895,247.654 112.500 C 247.404 113.105,246.999 114.095,246.753 114.700 C 246.508 115.305,246.148 116.113,245.953 116.495 C 245.759 116.877,245.600 117.552,245.600 117.995 C 245.600 118.438,245.420 118.800,245.200 118.800 C 244.980 118.800,244.800 119.239,244.800 119.776 C 244.800 120.313,244.620 120.864,244.400 121.000 C 244.180 121.136,244.000 121.597,244.000 122.024 C 244.000 122.451,243.820 122.800,243.600 122.800 C 243.380 122.800,243.200 123.162,243.200 123.605 C 243.200 124.048,243.020 124.768,242.800 125.205 C 242.580 125.642,242.220 126.358,242.000 126.795 C 241.780 127.232,241.600 127.952,241.600 128.395 C 241.600 128.838,241.420 129.200,241.200 129.200 C 240.980 129.200,240.800 129.562,240.800 130.005 C 240.800 130.448,240.633 131.123,240.429 131.505 C 239.843 132.604,237.200 139.562,237.200 140.007 C 237.200 140.228,236.861 141.172,236.446 142.104 C 236.031 143.037,235.294 144.880,234.807 146.200 C 233.667 149.290,233.415 149.945,232.800 151.400 C 232.521 152.060,232.116 153.050,231.900 153.600 C 231.684 154.150,231.348 154.913,231.153 155.295 C 230.959 155.677,230.800 156.341,230.800 156.771 C 230.800 157.201,230.620 157.664,230.400 157.800 C 230.180 157.936,230.000 158.397,230.000 158.824 C 230.000 159.251,229.820 159.600,229.600 159.600 C 229.380 159.600,229.200 159.962,229.200 160.405 C 229.200 160.848,229.041 161.523,228.847 161.905 C 228.652 162.287,228.271 163.140,228.000 163.800 C 227.729 164.460,227.348 165.313,227.153 165.695 C 226.959 166.077,226.800 166.752,226.800 167.195 C 226.800 167.638,226.620 168.000,226.400 168.000 C 226.180 168.000,226.000 168.349,226.000 168.776 C 226.000 169.203,225.820 169.664,225.600 169.800 C 225.380 169.936,225.200 170.399,225.200 170.829 C 225.200 171.259,225.041 171.923,224.847 172.305 C 223.907 174.152,220.800 182.297,220.800 182.913 C 220.800 183.076,220.461 183.972,220.047 184.904 C 219.633 185.837,219.075 187.230,218.807 188.000 C 218.206 189.726,217.618 191.181,217.153 192.095 C 216.959 192.477,216.800 192.974,216.800 193.199 C 216.800 193.593,215.529 196.655,214.767 198.095 C 214.565 198.477,214.400 199.064,214.400 199.400 C 214.400 199.736,214.241 200.323,214.047 200.705 C 213.852 201.087,213.492 201.895,213.247 202.500 C 213.001 203.105,212.596 204.095,212.346 204.700 C 212.097 205.305,211.716 206.250,211.500 206.800 C 211.284 207.350,210.948 208.113,210.753 208.495 C 210.559 208.877,210.400 209.541,210.400 209.971 C 210.400 210.401,210.220 210.864,210.000 211.000 C 209.780 211.136,209.600 211.597,209.600 212.024 C 209.600 212.451,209.420 212.800,209.200 212.800 C 208.980 212.800,208.800 213.162,208.800 213.605 C 208.800 214.048,208.641 214.723,208.447 215.105 C 207.864 216.250,206.843 218.836,206.118 221.000 C 205.142 223.912,201.550 233.270,200.821 234.800 C 200.663 235.130,200.285 236.255,199.980 237.300 C 199.675 238.345,199.285 239.200,199.113 239.200 C 198.941 239.200,198.800 239.562,198.800 240.005 C 198.800 240.448,198.641 241.123,198.447 241.505 C 198.252 241.887,197.871 242.740,197.600 243.400 C 197.329 244.060,196.978 244.870,196.821 245.200 C 196.663 245.530,196.285 246.655,195.980 247.700 C 195.675 248.745,195.285 249.600,195.113 249.600 C 194.941 249.600,194.800 250.050,194.800 250.600 C 194.800 251.150,194.620 251.600,194.400 251.600 C 194.180 251.600,194.000 251.962,194.000 252.405 C 194.000 252.848,193.841 253.523,193.647 253.905 C 193.452 254.287,193.071 255.140,192.800 255.800 C 192.529 256.460,192.178 257.270,192.021 257.600 C 191.863 257.930,191.485 259.055,191.180 260.100 C 190.875 261.145,190.485 262.000,190.313 262.000 C 190.141 262.000,190.000 262.315,189.999 262.700 C 189.999 263.085,189.189 265.452,188.199 267.960 C 187.210 270.468,186.400 272.675,186.400 272.864 C 186.400 273.054,186.061 273.972,185.646 274.904 C 185.231 275.837,184.494 277.680,184.007 279.000 C 183.120 281.405,182.791 282.251,181.946 284.300 C 181.697 284.905,181.316 285.850,181.100 286.400 C 180.884 286.950,180.548 287.713,180.353 288.095 C 180.159 288.477,180.000 289.141,180.000 289.571 C 180.000 290.001,179.820 290.464,179.600 290.600 C 179.380 290.736,179.200 291.197,179.200 291.624 C 179.200 292.051,179.020 292.400,178.800 292.400 C 178.580 292.400,178.400 292.762,178.400 293.205 C 178.400 293.648,178.241 294.323,178.047 294.705 C 177.852 295.087,177.471 295.940,177.200 296.600 C 176.929 297.260,176.548 298.113,176.353 298.495 C 176.159 298.877,176.000 299.552,176.000 299.995 C 176.000 300.438,175.859 300.800,175.687 300.800 C 175.515 300.800,175.125 301.655,174.820 302.700 C 174.515 303.745,174.137 304.870,173.979 305.200 C 173.822 305.530,173.513 306.250,173.293 306.800 C 171.096 312.295,170.489 313.460,168.904 315.222 C 163.983 320.696,155.745 320.827,150.237 315.518 C 147.943 313.307,148.067 313.274,147.354 316.282 C 145.068 325.932,155.262 334.268,164.359 330.186 C 168.804 328.192,170.114 326.224,174.209 315.400 C 178.941 302.892,179.669 300.978,179.992 300.200 C 180.389 299.246,183.196 291.891,184.878 287.400 C 185.537 285.640,186.239 283.795,186.438 283.300 C 186.637 282.805,186.963 281.995,187.162 281.500 C 187.362 281.005,188.246 278.710,189.128 276.400 C 193.067 266.082,196.161 257.953,197.272 255.000 C 197.934 253.240,198.639 251.395,198.838 250.900 C 199.037 250.405,199.363 249.595,199.562 249.100 C 199.761 248.605,200.498 246.670,201.200 244.800 C 201.902 242.930,202.663 240.950,202.892 240.400 C 203.412 239.146,203.639 238.557,205.126 234.600 C 205.787 232.840,207.322 228.790,208.538 225.600 C 209.753 222.410,211.669 217.370,212.794 214.400 C 214.956 208.694,217.855 201.143,218.399 199.800 C 219.627 196.773,221.204 192.550,221.202 192.296 C 221.201 192.128,221.543 191.228,221.961 190.296 C 222.380 189.363,223.571 186.350,224.609 183.600 C 225.647 180.850,227.389 176.260,228.481 173.400 C 229.574 170.540,231.189 166.310,232.071 164.000 C 232.953 161.690,233.821 159.440,233.999 159.000 C 234.178 158.560,234.898 156.670,235.600 154.800 C 236.302 152.930,237.027 151.040,237.212 150.600 C 237.397 150.160,239.462 144.760,241.801 138.600 C 246.393 126.507,249.084 119.470,249.601 118.200 C 253.216 109.319,253.849 106.157,252.663 102.887 C 252.285 101.845,252.085 101.675,251.693 102.067 M11.467 130.267 C 11.320 130.413,11.211 130.908,11.225 131.367 C 11.249 132.133,11.282 132.123,11.634 131.242 C 12.026 130.263,11.944 129.789,11.467 130.267 M389.044 132.600 C 389.373 134.071,389.602 134.390,389.594 133.367 C 389.591 132.945,389.405 132.330,389.182 132.000 C 388.885 131.562,388.848 131.724,389.044 132.600 M10.493 133.600 C 10.493 134.370,10.575 134.685,10.676 134.300 C 10.776 133.915,10.776 133.285,10.676 132.900 C 10.575 132.515,10.493 132.830,10.493 133.600 M144.400 158.770 C 142.879 160.368,139.516 162.800,138.828 162.800 C 138.593 162.800,138.400 162.980,138.400 163.200 C 138.400 163.420,138.130 163.600,137.800 163.600 C 137.470 163.600,137.200 163.780,137.200 164.000 C 137.200 164.220,137.007 164.400,136.772 164.400 C 136.537 164.400,135.591 164.918,134.670 165.552 C 133.749 166.185,132.367 167.062,131.598 167.501 C 130.829 167.939,127.950 169.694,125.200 171.400 C 122.450 173.106,119.570 174.860,118.800 175.298 C 118.030 175.736,116.922 176.433,116.338 176.847 C 115.754 177.261,115.079 177.600,114.838 177.600 C 114.597 177.600,114.400 177.759,114.400 177.953 C 114.400 178.148,114.085 178.407,113.700 178.529 C 112.791 178.817,110.847 180.012,109.842 180.900 C 109.406 181.285,108.813 181.600,108.525 181.600 C 108.236 181.600,108.000 181.759,108.000 181.953 C 108.000 182.148,107.685 182.407,107.300 182.529 C 106.588 182.754,104.364 184.024,104.000 184.413 C 103.890 184.531,102.035 185.701,99.877 187.013 C 97.720 188.326,95.290 189.813,94.477 190.317 C 93.665 190.821,92.685 191.337,92.300 191.464 C 91.915 191.590,91.600 191.852,91.600 192.047 C 91.600 192.241,91.364 192.400,91.075 192.400 C 90.787 192.400,90.164 192.760,89.692 193.200 C 89.220 193.640,88.723 194.000,88.589 194.000 C 88.454 194.000,87.559 194.540,86.600 195.200 C 85.641 195.860,84.751 196.400,84.623 196.400 C 84.495 196.400,83.131 197.238,81.591 198.262 L 78.791 200.123 81.985 202.262 C 83.742 203.438,85.364 204.400,85.590 204.400 C 85.815 204.400,86.001 204.535,86.003 204.700 C 86.014 205.789,88.208 205.969,89.672 205.000 C 90.503 204.450,91.289 204.000,91.419 204.000 C 91.549 204.000,92.441 203.460,93.400 202.800 C 94.359 202.140,95.322 201.600,95.539 201.600 C 95.756 201.600,95.993 201.462,96.067 201.294 C 96.140 201.125,97.550 200.189,99.200 199.215 C 100.850 198.240,102.920 196.961,103.800 196.373 C 104.680 195.785,108.190 193.604,111.600 191.527 C 142.912 172.450,144.149 171.597,145.988 167.800 C 147.142 165.418,147.356 160.156,146.372 158.350 L 145.800 157.300 144.400 158.770 M253.669 158.728 C 251.600 165.635,254.199 170.387,263.000 175.787 C 265.420 177.272,268.342 179.098,269.494 179.844 C 270.645 180.590,271.693 181.200,271.822 181.200 C 271.951 181.200,272.841 181.740,273.800 182.400 C 274.759 183.060,275.633 183.600,275.743 183.600 C 275.852 183.600,277.300 184.500,278.961 185.600 C 280.622 186.700,282.078 187.600,282.196 187.600 C 282.313 187.600,283.622 188.383,285.105 189.340 C 289.827 192.389,295.641 196.000,295.828 196.000 C 295.928 196.000,297.222 196.786,298.705 197.746 C 303.289 200.716,311.919 206.000,312.184 206.000 C 312.323 206.000,313.770 205.100,315.400 204.000 C 317.030 202.900,318.472 202.000,318.603 202.000 C 318.735 202.000,319.469 201.574,320.234 201.054 L 321.626 200.109 320.627 199.454 C 320.078 199.094,319.442 198.800,319.214 198.800 C 318.986 198.800,318.800 198.620,318.800 198.400 C 318.800 198.180,318.530 198.000,318.200 198.000 C 317.870 198.000,317.600 197.820,317.600 197.600 C 317.600 197.380,317.407 197.200,317.172 197.200 C 316.937 197.200,315.959 196.660,315.000 196.000 C 314.041 195.340,313.063 194.800,312.828 194.800 C 312.593 194.800,312.400 194.620,312.400 194.400 C 312.400 194.180,312.164 194.000,311.875 194.000 C 311.587 194.000,310.964 193.640,310.492 193.200 C 310.020 192.760,309.356 192.400,309.017 192.400 C 308.678 192.400,308.400 192.242,308.400 192.049 C 308.400 191.855,307.860 191.473,307.200 191.200 C 306.540 190.927,306.000 190.545,306.000 190.351 C 306.000 190.158,305.801 190.000,305.558 190.000 C 305.315 190.000,304.316 189.460,303.338 188.800 C 302.360 188.140,301.474 187.600,301.369 187.600 C 301.185 187.600,294.625 183.548,293.783 182.914 C 292.870 182.226,290.961 181.138,290.300 180.929 C 289.915 180.807,289.600 180.548,289.600 180.353 C 289.600 180.159,289.410 180.000,289.178 180.000 C 288.946 180.000,287.696 179.280,286.400 178.400 C 285.104 177.520,283.854 176.800,283.622 176.800 C 283.390 176.800,283.200 176.620,283.200 176.400 C 283.200 176.180,282.930 176.000,282.600 176.000 C 282.270 176.000,282.000 175.841,282.000 175.647 C 282.000 175.452,281.685 175.193,281.300 175.071 C 280.577 174.842,278.353 173.568,278.000 173.181 C 277.890 173.060,276.360 172.108,274.600 171.064 C 270.415 168.582,270.111 168.395,268.135 167.100 C 267.211 166.495,266.263 166.000,266.028 166.000 C 265.793 166.000,265.600 165.820,265.600 165.600 C 265.600 165.380,265.410 165.200,265.178 165.200 C 264.946 165.200,263.696 164.480,262.400 163.600 C 261.104 162.720,259.854 162.000,259.622 162.000 C 259.390 162.000,259.200 161.820,259.200 161.600 C 259.200 161.380,258.941 161.200,258.625 161.200 C 258.309 161.200,257.170 160.292,256.094 159.181 L 254.138 157.162 253.669 158.728 M2.800 161.000 C 2.800 161.330,2.980 161.600,3.200 161.600 C 3.420 161.600,3.600 161.330,3.600 161.000 C 3.600 160.670,3.420 160.400,3.200 160.400 C 2.980 160.400,2.800 160.670,2.800 161.000 M398.006 168.700 C 398.024 169.577,398.788 170.159,398.794 169.300 C 398.797 168.805,398.620 168.400,398.400 168.400 C 398.180 168.400,398.003 168.535,398.006 168.700 M1.206 170.100 C 1.211 170.828,1.286 170.885,1.600 170.400 C 2.101 169.624,2.101 169.200,1.600 169.200 C 1.380 169.200,1.203 169.605,1.206 170.100 M346.452 208.300 C 346.424 209.015,346.220 209.600,346.000 209.600 C 345.780 209.600,345.600 209.845,345.600 210.144 C 345.600 212.624,339.195 220.504,335.800 222.199 C 334.920 222.639,333.967 223.219,333.681 223.489 C 333.396 223.759,332.496 224.294,331.681 224.677 C 330.867 225.060,329.851 225.695,329.425 226.087 C 328.998 226.479,328.413 226.800,328.125 226.800 C 327.836 226.800,327.600 226.959,327.600 227.153 C 327.600 227.348,327.285 227.607,326.900 227.729 C 325.991 228.017,324.047 229.212,323.042 230.100 C 322.606 230.485,322.093 230.800,321.903 230.800 C 321.712 230.800,320.496 231.520,319.200 232.400 C 317.904 233.280,316.750 234.000,316.634 234.000 C 316.519 234.000,315.060 234.891,313.393 235.979 C 311.725 237.068,310.010 238.070,309.580 238.206 C 309.151 238.342,308.800 238.622,308.800 238.827 C 308.800 239.032,308.607 239.200,308.372 239.200 C 308.137 239.200,307.159 239.740,306.200 240.400 C 305.241 241.060,304.341 241.600,304.200 241.600 C 304.059 241.600,303.159 242.140,302.200 242.800 C 301.241 243.460,300.263 244.000,300.028 244.000 C 299.793 244.000,299.600 244.180,299.600 244.400 C 299.600 244.620,299.330 244.800,299.000 244.800 C 298.670 244.800,298.400 244.980,298.400 245.200 C 298.400 245.420,298.207 245.600,297.972 245.600 C 297.737 245.600,296.759 246.140,295.800 246.800 C 294.841 247.460,293.878 248.000,293.661 248.000 C 293.444 248.000,293.207 248.135,293.133 248.300 C 293.004 248.591,290.041 250.491,287.208 252.100 C 285.802 252.897,281.163 255.782,277.306 258.257 C 276.155 258.996,275.045 259.600,274.839 259.600 C 274.634 259.600,274.407 259.735,274.333 259.900 C 274.141 260.332,270.828 262.000,270.162 262.000 C 269.853 262.000,269.600 262.180,269.600 262.400 C 269.600 263.390,260.163 262.649,259.200 261.583 C 259.090 261.461,258.370 260.923,257.600 260.386 C 256.830 259.850,255.767 258.899,255.237 258.273 L 254.275 257.136 253.737 258.414 C 252.087 262.339,253.584 268.431,256.962 271.530 C 262.219 276.355,267.399 276.153,276.000 270.789 C 277.870 269.623,281.650 267.292,284.400 265.609 C 287.150 263.925,291.380 261.323,293.800 259.826 C 296.220 258.328,298.773 256.775,299.473 256.374 C 300.173 255.972,301.748 255.004,302.973 254.222 C 304.198 253.440,306.187 252.170,307.394 251.400 C 308.600 250.630,309.683 250.000,309.799 250.000 C 309.915 250.000,311.222 249.217,312.705 248.260 C 315.326 246.568,316.446 245.874,324.400 241.011 C 337.298 233.125,338.495 232.300,340.636 229.820 C 345.485 224.204,347.858 216.405,346.850 209.400 C 346.630 207.868,346.486 207.470,346.452 208.300 M53.246 212.157 C 53.158 221.258,57.427 229.885,63.887 233.660 C 68.618 236.424,69.425 236.912,70.400 237.595 C 70.950 237.980,74.190 240.004,77.600 242.092 C 81.010 244.180,85.330 246.839,87.200 248.001 C 90.225 249.882,91.741 250.810,96.668 253.800 C 97.393 254.240,100.284 256.024,103.093 257.764 C 105.902 259.505,110.090 262.093,112.400 263.517 C 118.310 267.158,120.927 268.782,124.600 271.086 C 130.839 275.001,134.654 275.779,139.377 274.102 C 145.026 272.096,148.722 263.972,146.459 258.535 L 145.932 257.270 143.926 259.235 C 142.822 260.316,141.667 261.200,141.359 261.200 C 141.052 261.200,140.800 261.380,140.800 261.600 C 140.800 261.820,140.451 262.000,140.024 262.000 C 139.597 262.000,139.136 262.180,139.000 262.400 C 138.862 262.623,137.004 262.800,134.800 262.800 C 132.596 262.800,130.738 262.623,130.600 262.400 C 130.464 262.180,130.003 262.000,129.576 262.000 C 129.149 262.000,128.800 261.820,128.800 261.600 C 128.800 261.380,128.440 261.200,128.000 261.200 C 127.560 261.200,127.200 261.020,127.200 260.800 C 127.200 260.580,126.964 260.400,126.675 260.400 C 126.387 260.400,125.764 260.040,125.292 259.600 C 124.820 259.160,124.156 258.800,123.817 258.800 C 123.478 258.800,123.200 258.620,123.200 258.400 C 123.200 258.180,122.964 258.000,122.675 258.000 C 122.387 258.000,121.764 257.640,121.292 257.200 C 120.820 256.760,120.317 256.400,120.175 256.400 C 120.032 256.400,119.116 255.860,118.138 255.200 C 117.160 254.540,116.244 254.000,116.103 254.000 C 115.962 254.000,114.396 253.072,112.623 251.937 C 110.850 250.802,108.458 249.272,107.306 248.537 C 106.155 247.802,105.030 247.200,104.806 247.200 C 104.583 247.200,104.400 247.020,104.400 246.800 C 104.400 246.580,104.210 246.400,103.978 246.400 C 103.746 246.400,102.496 245.680,101.200 244.800 C 99.904 243.920,98.654 243.200,98.422 243.200 C 98.190 243.200,98.000 243.020,98.000 242.800 C 98.000 242.580,97.730 242.400,97.400 242.400 C 97.070 242.400,96.800 242.241,96.800 242.047 C 96.800 241.852,96.485 241.590,96.100 241.464 C 95.715 241.337,94.742 240.821,93.937 240.317 C 93.133 239.813,90.973 238.511,89.137 237.424 C 87.302 236.338,84.775 234.763,83.522 233.924 C 82.269 233.086,81.054 232.400,80.822 232.400 C 80.590 232.400,80.400 232.220,80.400 232.000 C 80.400 231.780,80.207 231.600,79.972 231.600 C 79.737 231.600,78.792 231.099,77.872 230.488 C 76.952 229.876,75.705 229.126,75.100 228.820 C 74.495 228.515,74.000 228.115,74.000 227.932 C 74.000 227.750,73.807 227.600,73.572 227.600 C 73.337 227.600,72.359 227.060,71.400 226.400 C 70.441 225.740,69.549 225.200,69.419 225.200 C 69.288 225.200,67.822 224.300,66.161 223.200 C 64.500 222.100,62.967 221.200,62.755 221.200 C 61.668 221.200,56.765 215.265,55.568 212.500 C 55.258 211.785,54.869 211.200,54.702 211.200 C 54.536 211.200,54.400 210.876,54.400 210.480 C 54.400 210.084,54.237 209.589,54.039 209.380 C 53.840 209.171,53.591 208.640,53.485 208.200 C 53.379 207.760,53.272 209.541,53.246 212.157 M1.200 230.200 C 1.200 230.530,1.380 230.800,1.600 230.800 C 1.820 230.800,2.000 230.530,2.000 230.200 C 2.000 229.870,1.820 229.600,1.600 229.600 C 1.380 229.600,1.200 229.870,1.200 230.200 M8.400 260.553 C 8.400 260.883,8.580 261.264,8.800 261.400 C 9.020 261.536,9.200 261.377,9.200 261.047 C 9.200 260.717,9.020 260.336,8.800 260.200 C 8.580 260.064,8.400 260.223,8.400 260.553 M8.800 262.126 C 8.800 262.226,9.063 262.914,9.384 263.654 C 9.882 264.801,9.971 264.863,9.984 264.071 C 9.993 263.561,9.730 262.873,9.400 262.543 C 9.070 262.213,8.800 262.025,8.800 262.126 M10.417 266.800 C 10.431 267.517,11.565 269.600,11.586 268.946 C 11.594 268.696,11.331 267.976,11.002 267.346 C 10.674 266.716,10.410 266.470,10.417 266.800 M14.400 277.800 C 14.400 278.130,14.580 278.400,14.800 278.400 C 15.020 278.400,15.200 278.130,15.200 277.800 C 15.200 277.470,15.020 277.200,14.800 277.200 C 14.580 277.200,14.400 277.470,14.400 277.800 M25.605 300.009 C 26.101 300.936,26.400 301.024,26.400 300.243 C 26.400 299.936,26.126 299.580,25.791 299.452 C 25.294 299.261,25.259 299.364,25.605 300.009 M373.037 301.800 C 372.676 302.350,372.537 302.800,372.727 302.800 C 372.916 302.800,373.277 302.350,373.527 301.800 C 373.778 301.250,373.917 300.800,373.837 300.800 C 373.757 300.800,373.397 301.250,373.037 301.800 M371.673 304.087 C 371.413 304.347,371.200 304.735,371.200 304.949 C 371.200 305.162,370.902 305.666,370.538 306.069 C 370.174 306.471,370.053 306.800,370.270 306.800 C 370.487 306.800,370.920 306.305,371.232 305.700 C 371.544 305.095,371.974 304.475,372.188 304.322 C 372.402 304.169,372.480 303.947,372.362 303.828 C 372.243 303.710,371.934 303.826,371.673 304.087 M29.037 305.800 C 29.397 306.350,29.757 306.800,29.837 306.800 C 29.917 306.800,29.778 306.350,29.527 305.800 C 29.277 305.250,28.916 304.800,28.727 304.800 C 28.537 304.800,28.676 305.250,29.037 305.800 M38.800 320.229 C 38.800 320.653,40.036 321.697,40.267 321.467 C 40.392 321.341,40.217 320.960,39.876 320.619 C 39.241 319.984,38.800 319.824,38.800 320.229 M41.490 323.076 C 41.387 323.254,41.639 323.746,42.051 324.170 C 42.914 325.057,43.041 324.552,42.226 323.476 C 41.924 323.078,41.593 322.898,41.490 323.076 M357.693 324.000 C 357.416 324.443,357.367 324.800,357.583 324.800 C 357.797 324.800,358.165 324.440,358.400 324.000 C 358.635 323.560,358.685 323.200,358.510 323.200 C 358.335 323.200,357.968 323.560,357.693 324.000 M355.989 326.313 C 354.144 328.545,354.129 328.573,355.072 327.986 C 355.551 327.687,356.132 327.028,356.363 326.522 C 356.867 325.414,356.774 325.362,355.989 326.313 M44.409 326.937 C 44.404 327.122,44.760 327.731,45.200 328.291 C 45.640 328.850,45.996 329.149,45.991 328.954 C 45.979 328.487,44.420 326.500,44.409 326.937 M48.800 332.215 C 48.801 332.696,50.746 334.989,50.963 334.765 C 51.050 334.674,50.600 333.977,49.961 333.215 C 49.322 332.453,48.800 332.003,48.800 332.215 M350.100 333.023 C 349.511 333.663,349.462 334.000,349.957 334.000 C 350.298 334.000,350.937 332.796,350.709 332.583 C 350.649 332.527,350.375 332.725,350.100 333.023 M341.662 341.858 C 340.706 342.848,340.019 343.752,340.134 343.867 C 340.342 344.075,344.000 340.615,344.000 340.211 C 344.000 339.680,343.265 340.198,341.662 341.858 M65.822 349.795 C 66.659 350.561,67.416 351.117,67.504 351.029 C 67.732 350.801,65.162 348.400,64.690 348.400 C 64.475 348.400,64.985 349.028,65.822 349.795 M332.813 350.291 C 332.289 350.882,332.303 350.923,332.946 350.676 C 333.342 350.524,333.741 350.400,333.833 350.400 C 333.925 350.400,334.000 350.220,334.000 350.000 C 334.000 349.412,333.481 349.539,332.813 350.291 M71.600 354.800 C 72.107 355.240,72.613 355.600,72.723 355.600 C 72.834 355.600,72.598 355.240,72.200 354.800 C 71.802 354.360,71.296 354.000,71.077 354.000 C 70.857 354.000,71.093 354.360,71.600 354.800 M327.246 355.206 C 326.501 355.863,326.051 356.397,326.246 356.394 C 326.724 356.386,327.253 355.973,328.162 354.900 C 329.206 353.667,328.862 353.782,327.246 355.206 M81.853 362.280 C 81.540 362.593,82.734 363.689,83.213 363.529 C 83.436 363.455,83.270 363.095,82.843 362.730 C 82.417 362.365,81.971 362.162,81.853 362.280 M305.656 370.834 C 305.136 371.255,304.866 371.594,305.056 371.587 C 305.544 371.569,306.976 370.443,306.771 370.239 C 306.677 370.145,306.175 370.413,305.656 370.834 M95.600 372.037 C 95.600 372.237,95.938 372.400,96.351 372.400 C 96.764 372.400,97.326 372.670,97.600 373.000 C 97.874 373.330,98.301 373.596,98.549 373.591 C 99.135 373.580,97.213 372.099,96.300 371.859 C 95.915 371.758,95.600 371.838,95.600 372.037 M99.600 374.200 C 99.874 374.530,100.391 374.779,100.749 374.754 C 101.298 374.714,101.291 374.679,100.700 374.524 C 100.315 374.424,100.000 374.175,100.000 373.971 C 100.000 373.767,99.798 373.600,99.551 373.600 C 99.241 373.600,99.256 373.785,99.600 374.200 " stroke="none" fill="#6bb09f" fill-rule="evenodd"></path></g></svg>