<svg xmlns="http://www.w3.org/2000/svg" viewBox="0 0 128 128">
	<path fill="#DDB93A" d=" M 19.037 113.876 L 9.032 1.661 L 118.968 1.661 L 108.952 113.859 L 63.933 126.339 L 19.037 113.876 Z "/>
	<path fill="#FFD849" d=" M 64 116.8 L 100.378 106.714 L 108.937 10.836 L 64 10.836 L 64 116.8 Z "/>
	<path fill="#ECECEC" d=" M 48.874 25.711 L 48.874 83.092 L 27.888 77.185 L 27.888 90.265 L 59.787 99.125 L 59.787 25.711 L 48.874 25.711 Z "/>
	<path fill="#FFFFFF" d=" M 68.601 25.711 L 68.601 73.388 L 90.427 69.169 L 89.587 80.56 L 68.601 86.467 L 68.601 99.125 L 97.982 91.108 L 100.92 55.667 L 79.094 58.199 L 79.094 38.79 L 102.179 38.79 L 103.438 25.711 L 68.601 25.711 Z "/>
</svg>